<svg width="152" height="182" viewBox="0 0 152 182" fill="none" xmlns="http://www.w3.org/2000/svg">
<path d="M151.625 7.75V146.5C151.625 148.34 150.901 150.105 149.611 151.406C148.322 152.707 146.573 153.438 144.75 153.438H27.875C24.2283 153.438 20.7309 154.899 18.1523 157.501C15.5737 160.103 14.125 163.633 14.125 167.312H131C132.823 167.312 134.572 168.043 135.861 169.344C137.151 170.645 137.875 172.41 137.875 174.25C137.875 176.09 137.151 177.855 135.861 179.156C134.572 180.457 132.823 181.188 131 181.188H7.25C5.42664 181.188 3.67795 180.457 2.38864 179.156C1.09933 177.855 0.375 176.09 0.375 174.25V28.5625C0.375 21.2027 3.27231 14.1444 8.42956 8.94029C13.5868 3.73615 20.5815 0.8125 27.875 0.8125H144.75C146.573 0.8125 148.322 1.54341 149.611 2.84445C150.901 4.14548 151.625 5.91006 151.625 7.75Z" fill="black"/>
</svg>
