<svg width="366" height="332" viewBox="0 0 366 332" fill="none" xmlns="http://www.w3.org/2000/svg">
<rect x="120" y="41" width="246" height="270" rx="12" fill="#ECF7FC"/>
<path d="M95.4062 182.482L133.868 249.437L202.05 166.625L221.281 182.482" stroke="#333333" stroke-width="2" stroke-linecap="round" stroke-linejoin="round"/>
<path d="M51.8549 330.593H312.375V214.851L222.264 184.161L179.438 249.047L111.632 166.625L92.8958 184.161L1 220.112V330.593H51.8549ZM51.8549 330.593V256.939" stroke="#333333" stroke-width="2" stroke-linecap="round" stroke-linejoin="round"/>
<path d="M266 330.594V257.719" stroke="#333333" stroke-width="2" stroke-linecap="round" stroke-linejoin="round"/>
<path d="M115.827 12.7004C63.847 51.7849 94.1684 115.673 115.827 142.732C150.072 177.006 179.018 157.013 189.21 142.732C241.189 73.5825 219.786 24.7259 196.09 12.7004C160.163 -9.84865 124.235 5.93582 115.827 12.7004Z" stroke="#333333" stroke-width="2"/>
<path d="M95.4062 182.482L133.868 249.437L202.05 166.625L221.281 182.482" stroke="#333333" stroke-width="2" stroke-linecap="round" stroke-linejoin="round"/>
<path d="M51.8549 330.593H312.375V214.851L222.264 184.161L179.438 249.047L111.632 166.625L92.8958 184.161L1 220.112V330.593H51.8549ZM51.8549 330.593V256.939" stroke="#333333" stroke-width="2" stroke-linecap="round" stroke-linejoin="round"/>
<path d="M266 330.594V257.719" stroke="#333333" stroke-width="2" stroke-linecap="round" stroke-linejoin="round"/>
<path d="M115.827 12.7004C63.847 51.7849 94.1684 115.673 115.827 142.732C150.072 177.006 179.018 157.013 189.21 142.732C241.189 73.5825 219.786 24.7259 196.09 12.7004C160.163 -9.84865 124.235 5.93582 115.827 12.7004Z" stroke="#333333" stroke-width="2"/>
</svg>
