<svg width="696" height="268" viewBox="0 0 696 268" fill="none" xmlns="http://www.w3.org/2000/svg">
<path d="M121.141 107.295V108.795H122.641V107.295H121.141ZM82.957 107.295H81.457V108.795H82.957V107.295ZM70.9453 85.9079L69.6849 85.0947L69.6755 85.1093L69.6664 85.1241L70.9453 85.9079ZM71.2383 107.002L72.5733 106.318L72.5668 106.305L72.56 106.292L71.2383 107.002ZM82.8594 116.67L83.6257 115.38L83.6234 115.379L82.8594 116.67ZM120.555 202.021L119.213 201.35L119.21 201.357L119.207 201.364L120.555 202.021ZM105.32 215.498L105.963 216.853L105.972 216.849L105.32 215.498ZM50.7305 214.619L50.02 215.94L50.0246 215.942L50.7305 214.619ZM35.4961 198.701L34.091 199.226L35.4961 198.701ZM31.8828 160.908V159.408H30.3828V160.908H31.8828ZM70.0664 160.908H71.5664V159.408H70.0664V160.908ZM71.6289 191.572L70.3514 192.358L70.3622 192.376L70.3735 192.393L71.6289 191.572ZM83.4453 190.888L82.1798 190.083L82.171 190.097L82.1625 190.111L83.4453 190.888ZM81.6875 163.056L82.81 162.061L82.8038 162.054L82.7974 162.047L81.6875 163.056ZM62.4492 148.701L61.6208 149.951L61.6264 149.955L62.4492 148.701ZM33.8359 121.259L32.4421 121.814L32.4449 121.821L32.4479 121.828L33.8359 121.259ZM35.2031 73.9938L33.8933 73.2628L33.8869 73.2745L35.2031 73.9938ZM50.2422 60.9079L50.861 62.2744L50.8716 62.2695L50.2422 60.9079ZM102.488 61.2985L101.86 62.6608L101.865 62.6629L102.488 61.2985ZM117.43 74.3845L116.065 75.0077L116.07 75.0179L116.075 75.028L117.43 74.3845ZM121.141 105.795H82.957V108.795H121.141V105.795ZM84.457 107.295V95.5759H81.457V107.295H84.457ZM84.457 95.5759C84.457 92.8055 84.3339 90.4911 84.0763 88.6538C83.8256 86.8652 83.4251 85.3445 82.7486 84.3072L80.2358 85.9461C80.5359 86.4062 80.8678 87.3758 81.1053 89.0702C81.3361 90.716 81.457 92.8775 81.457 95.5759H84.457ZM82.7486 84.3072C81.4189 82.2684 79.2375 81.3806 76.6094 81.3806V84.3806C78.5385 84.3806 79.6123 84.9901 80.2358 85.9461L82.7486 84.3072ZM76.6094 81.3806C73.6444 81.3806 71.2731 82.633 69.6849 85.0947L72.2058 86.7211C73.2217 85.1463 74.6264 84.3806 76.6094 84.3806V81.3806ZM69.6664 85.1241C68.2139 87.4939 67.5898 90.887 67.5898 95.0876H70.5898C70.5898 91.085 71.2027 88.3584 72.2242 86.6917L69.6664 85.1241ZM67.5898 95.0876C67.5898 100.45 68.3101 104.717 69.9165 107.711L72.56 106.292C71.3019 103.948 70.5898 100.272 70.5898 95.0876H67.5898ZM69.9032 107.685C70.7212 109.283 72.2088 110.909 74.2096 112.574C76.2291 114.254 78.8654 116.049 82.0954 117.96L83.6234 115.379C80.4731 113.514 77.9825 111.81 76.1283 110.267C74.2554 108.709 73.1225 107.39 72.5733 106.318L69.9032 107.685ZM82.093 117.959C91.2091 123.377 98.6077 128.29 104.305 132.7C110.019 137.122 113.944 140.98 116.191 144.273L118.669 142.582C116.162 138.908 111.95 134.824 106.141 130.327C100.314 125.817 92.8039 120.835 83.6257 115.38L82.093 117.959ZM116.191 144.273C120.682 150.856 123.059 161.708 123.059 177.119H126.059C126.059 161.54 123.683 149.931 118.669 142.582L116.191 144.273ZM123.059 177.119C123.059 188.32 121.722 196.333 119.213 201.35L121.896 202.692C124.726 197.033 126.059 188.443 126.059 177.119H123.059ZM119.207 201.364C116.8 206.297 112.039 210.588 104.668 214.147L105.972 216.849C113.706 213.115 119.101 208.423 121.903 202.679L119.207 201.364ZM104.678 214.142C97.3625 217.611 88.8006 219.369 78.9531 219.369V222.369C89.1577 222.369 98.1739 220.546 105.963 216.853L104.678 214.142ZM78.9531 219.369C68.138 219.369 58.9851 217.321 51.4364 213.295L50.0246 215.942C58.1009 220.25 67.7631 222.369 78.9531 222.369V219.369ZM51.441 213.298C43.9222 209.254 39.1504 204.194 36.9012 198.176L34.091 199.226C36.6595 206.098 42.0439 211.65 50.02 215.94L51.441 213.298ZM36.9012 198.176C34.5847 191.977 33.3828 183.039 33.3828 171.259H30.3828C30.3828 183.177 31.5898 192.534 34.091 199.226L36.9012 198.176ZM33.3828 171.259V160.908H30.3828V171.259H33.3828ZM31.8828 162.408H70.0664V159.408H31.8828V162.408ZM68.5664 160.908V180.146H71.5664V160.908H68.5664ZM68.5664 180.146C68.5664 183.144 68.6977 185.652 68.9709 187.649C69.238 189.603 69.6609 191.236 70.3514 192.358L72.9064 190.786C72.5553 190.215 72.1969 189.098 71.9432 187.243C71.6955 185.432 71.5664 183.073 71.5664 180.146H68.5664ZM70.3735 192.393C71.8502 194.651 74.3472 195.611 77.3906 195.611V192.611C74.9653 192.611 73.6212 191.878 72.8844 190.751L70.3735 192.393ZM77.3906 195.611C80.5936 195.611 83.1264 194.309 84.7281 191.666L82.1625 190.111C81.1601 191.765 79.6564 192.611 77.3906 192.611V195.611ZM84.7108 191.694C86.3019 189.193 86.9961 185.666 86.9961 181.318H83.9961C83.9961 185.434 83.3231 188.286 82.1798 190.083L84.7108 191.694ZM86.9961 181.318C86.9961 176.606 86.6757 172.645 86.0124 169.464C85.3541 166.308 84.3292 163.775 82.81 162.061L80.565 164.051C81.5849 165.202 82.4643 167.146 83.0755 170.076C83.6817 172.983 83.9961 176.721 83.9961 181.318H86.9961ZM82.7974 162.047C80.0423 159.017 73.4596 154.13 63.272 147.447L61.6264 149.955C71.8816 156.683 78.1244 161.367 80.5776 164.065L82.7974 162.047ZM63.2776 147.45C53.0468 140.673 46.373 135.819 43.1532 132.852L41.1202 135.058C44.5411 138.21 51.4089 143.187 61.6208 149.951L63.2776 147.45ZM43.1532 132.852C40.0345 129.978 37.3778 125.949 35.224 120.691L32.4479 121.828C34.7212 127.378 37.5983 131.812 41.1202 135.058L43.1532 132.852ZM35.2298 120.705C33.1753 115.538 32.1133 108.842 32.1133 100.556H29.1133C29.1133 109.067 30.1997 116.174 32.4421 121.814L35.2298 120.705ZM32.1133 100.556C32.1133 88.5103 33.6461 79.9707 36.5194 74.7132L33.8869 73.2745C30.6404 79.2148 29.1133 88.3836 29.1133 100.556H32.1133ZM36.5129 74.7249C39.4545 69.4545 44.1976 65.2917 50.8609 62.2743L49.6234 59.5415C42.4847 62.7741 37.2017 67.3353 33.8933 73.2628L36.5129 74.7249ZM50.8716 62.2695C57.5276 59.1926 65.6344 57.6227 75.2422 57.6227V54.6227C65.3188 54.6227 56.7588 56.243 49.6128 59.5463L50.8716 62.2695ZM75.2422 57.6227C85.7639 57.6227 94.6194 59.3236 101.86 62.6608L103.116 59.9362C95.3832 56.3724 86.0746 54.6227 75.2422 54.6227V57.6227ZM101.865 62.6629C109.229 66.0273 113.86 70.1793 116.065 75.0077L118.794 73.7612C116.182 68.0427 110.852 63.4708 103.112 59.9342L101.865 62.6629ZM116.075 75.028C118.393 79.9095 119.641 88.4997 119.641 101.045H122.641C122.641 88.4593 121.414 79.2761 118.785 73.7409L116.075 75.028ZM119.641 101.045V107.295H122.641V101.045H119.641ZM231.004 59.4431H232.504V57.9431H231.004V59.4431ZM229.832 190.4L231.313 190.64L231.313 190.637L229.832 190.4ZM222.898 205.341L224.095 206.246L224.1 206.239L222.898 205.341ZM207.664 216.963L208.241 218.347L208.248 218.344L207.664 216.963ZM137.938 188.154L136.448 188.327L136.448 188.329L137.938 188.154ZM136.961 59.4431V57.9431H135.461V59.4431H136.961ZM178.074 59.4431H179.574V57.9431H178.074V59.4431ZM179.148 191.279L177.74 191.795L177.751 191.824L177.762 191.853L179.148 191.279ZM188.719 190.986L187.309 190.473L187.305 190.486L187.3 190.498L188.719 190.986ZM189.891 59.4431V57.9431H188.391V59.4431H189.891ZM229.504 59.4431V165.107H232.504V59.4431H229.504ZM229.504 165.107C229.504 177.087 229.111 185.41 228.351 190.163L231.313 190.637C232.115 185.624 232.504 177.086 232.504 165.107H229.504ZM228.351 190.16C227.619 194.676 225.437 199.435 221.697 204.444L224.1 206.239C228.042 200.961 230.483 195.759 231.313 190.64L228.351 190.16ZM221.702 204.437C218.032 209.289 213.172 213.006 207.08 215.581L208.248 218.344C214.786 215.581 220.083 211.55 224.095 206.246L221.702 204.437ZM207.087 215.578C201.061 218.089 193.876 219.369 185.496 219.369V222.369C194.173 222.369 201.767 221.045 208.241 218.347L207.087 215.578ZM185.496 219.369C176.221 219.369 168.097 217.834 161.091 214.805L159.901 217.558C167.349 220.779 175.891 222.369 185.496 222.369V219.369ZM161.091 214.805C154.047 211.758 148.889 207.84 145.506 203.102L143.065 204.846C146.842 210.135 152.492 214.354 159.901 217.558L161.091 214.805ZM145.506 203.102C142.056 198.273 140.046 193.236 139.427 187.979L136.448 188.329C137.131 194.14 139.353 199.65 143.065 204.846L145.506 203.102ZM139.427 187.981C138.788 182.484 138.461 170.854 138.461 152.998H135.461C135.461 170.818 135.785 182.626 136.448 188.327L139.427 187.981ZM138.461 152.998V59.4431H135.461V152.998H138.461ZM136.961 60.9431H178.074V57.9431H136.961V60.9431ZM176.574 59.4431V177.998H179.574V59.4431H176.574ZM176.574 177.998C176.574 181.469 176.664 184.345 176.848 186.615C177.028 188.846 177.307 190.615 177.74 191.795L180.557 190.763C180.273 189.99 180.015 188.568 179.838 186.373C179.663 184.215 179.574 181.427 179.574 177.998H176.574ZM177.762 191.853C178.256 193.047 179.025 194.02 180.094 194.68C181.152 195.332 182.394 195.611 183.738 195.611V192.611C182.804 192.611 182.142 192.418 181.669 192.126C181.209 191.842 180.822 191.399 180.534 190.705L177.762 191.853ZM183.738 195.611C185.232 195.611 186.598 195.313 187.734 194.6C188.89 193.875 189.682 192.797 190.137 191.474L187.3 190.498C187.039 191.258 186.643 191.743 186.139 192.059C185.615 192.388 184.849 192.611 183.738 192.611V195.611ZM190.128 191.499C190.594 190.218 190.897 188.251 191.093 185.731C191.293 183.171 191.391 179.906 191.391 175.947H188.391C188.391 179.866 188.293 183.046 188.102 185.498C187.908 187.992 187.625 189.605 187.309 190.473L190.128 191.499ZM191.391 175.947V59.4431H188.391V175.947H191.391ZM189.891 60.9431H231.004V57.9431H189.891V60.9431ZM297.215 59.4431H298.715V57.9431H297.215V59.4431ZM296.727 195.674L298.223 195.782L298.223 195.78L296.727 195.674ZM292.234 207.881L291.024 206.994L291.019 207.002L291.014 207.009L292.234 207.881ZM281.492 215.498L281.929 216.933L281.942 216.929L281.492 215.498ZM240.477 217.549H238.977V219.049H240.477V217.549ZM240.477 189.912L240.595 188.416L238.977 188.289V189.912H240.477ZM252.781 188.056L251.812 186.911L252.781 188.056ZM256.102 59.4431V57.9431H254.602V59.4431H256.102ZM295.715 59.4431V165.107H298.715V59.4431H295.715ZM295.715 165.107C295.715 180.942 295.551 191.073 295.23 195.567L298.223 195.78C298.553 191.159 298.715 180.913 298.715 165.107H295.715ZM295.23 195.565C294.925 199.775 293.528 203.575 291.024 206.994L293.445 208.767C296.28 204.894 297.877 200.556 298.223 195.782L295.23 195.565ZM291.014 207.009C288.612 210.371 285.311 212.725 281.042 214.067L281.942 216.929C286.788 215.406 290.648 212.682 293.455 208.752L291.014 207.009ZM281.055 214.063C276.782 215.363 270.16 216.049 261.082 216.049V219.049C270.233 219.049 277.218 218.367 281.929 216.933L281.055 214.063ZM261.082 216.049H240.477V219.049H261.082V216.049ZM241.977 217.549V189.912H238.977V217.549H241.977ZM240.359 191.407C242.836 191.603 244.677 191.705 245.848 191.705V188.705C244.805 188.705 243.065 188.611 240.595 188.416L240.359 191.407ZM245.848 191.705C249.017 191.705 251.71 190.928 253.75 189.201L251.812 186.911C250.467 188.05 248.538 188.705 245.848 188.705V191.705ZM253.75 189.201C255.713 187.541 256.889 185.448 257.199 182.969L254.223 182.597C254.012 184.284 253.235 185.707 251.812 186.911L253.75 189.201ZM257.199 182.969C257.473 180.779 257.602 176.651 257.602 170.674H254.602C254.602 176.675 254.47 180.62 254.223 182.597L257.199 182.969ZM257.602 170.674V59.4431H254.602V170.674H257.602ZM256.102 60.9431H297.215V57.9431H256.102V60.9431ZM384.129 59.4431L385.613 59.2222L385.422 57.9431H384.129V59.4431ZM407.664 217.549V219.049H409.404L409.148 217.328L407.664 217.549ZM365.574 217.549L364.078 217.656L364.179 219.049H365.574V217.549ZM363.523 189.131L365.02 189.023L364.919 187.631H363.523V189.131ZM348.777 189.131V187.631H347.401L347.283 189.002L348.777 189.131ZM346.336 217.549V219.049H347.713L347.83 217.677L346.336 217.549ZM303.758 217.549L302.271 217.352L302.047 219.049H303.758V217.549ZM324.656 59.4431V57.9431H323.341L323.169 59.2465L324.656 59.4431ZM362.352 161.103V162.603H364.036L363.842 160.93L362.352 161.103ZM356.102 94.7946L357.597 94.6762L354.616 94.5897L356.102 94.7946ZM348.289 161.103L346.793 160.992L346.673 162.603H348.289V161.103ZM382.645 59.6639L406.18 217.769L409.148 217.328L385.613 59.2222L382.645 59.6639ZM407.664 216.049H365.574V219.049H407.664V216.049ZM367.07 217.441L365.02 189.023L362.027 189.239L364.078 217.656L367.07 217.441ZM363.523 187.631H348.777V190.631H363.523V187.631ZM347.283 189.002L344.841 217.42L347.83 217.677L350.272 189.259L347.283 189.002ZM346.336 216.049H303.758V219.049H346.336V216.049ZM305.245 217.745L326.143 59.6396L323.169 59.2465L302.271 217.352L305.245 217.745ZM324.656 60.9431H384.129V57.9431H324.656V60.9431ZM363.842 160.93C361.761 143.051 359.679 120.967 357.597 94.6762L354.606 94.9131C356.69 121.226 358.775 143.348 360.862 161.277L363.842 160.93ZM354.616 94.5897C350.448 124.802 347.839 146.944 346.793 160.992L349.785 161.215C350.823 147.267 353.421 125.204 357.587 94.9996L354.616 94.5897ZM348.289 162.603H362.352V159.603H348.289V162.603ZM506.492 59.4431H507.992V57.9431H506.492V59.4431ZM506.492 217.549V219.049H507.992V217.549H506.492ZM470.457 217.549L469.019 217.976L469.338 219.049H470.457V217.549ZM449.07 145.674L450.508 145.246L447.57 145.674H449.07ZM449.07 217.549V219.049H450.57V217.549H449.07ZM414.695 217.549H413.195V219.049H414.695V217.549ZM414.695 59.4431V57.9431H413.195V59.4431H414.695ZM449.07 59.4431L450.497 58.9811L450.161 57.9431H449.07V59.4431ZM472.117 130.634L470.69 131.096L473.617 130.634H472.117ZM472.117 59.4431V57.9431H470.617V59.4431H472.117ZM504.992 59.4431V217.549H507.992V59.4431H504.992ZM506.492 216.049H470.457V219.049H506.492V216.049ZM471.895 217.121L450.508 145.246L447.633 146.101L469.019 217.976L471.895 217.121ZM447.57 145.674V217.549H450.57V145.674H447.57ZM449.07 216.049H414.695V219.049H449.07V216.049ZM416.195 217.549V59.4431H413.195V217.549H416.195ZM414.695 60.9431H449.07V57.9431H414.695V60.9431ZM447.643 59.905L470.69 131.096L473.544 130.172L450.497 58.9811L447.643 59.905ZM473.617 130.634V59.4431H470.617V130.634H473.617ZM472.117 60.9431H506.492V57.9431H472.117V60.9431ZM594.09 59.4431L595.573 59.2222L595.383 57.9431H594.09V59.4431ZM617.625 217.549V219.049H619.365L619.109 217.328L617.625 217.549ZM575.535 217.549L574.039 217.656L574.14 219.049H575.535V217.549ZM573.484 189.131L574.98 189.023L574.88 187.631H573.484V189.131ZM558.738 189.131V187.631H557.362L557.244 189.002L558.738 189.131ZM556.297 217.549V219.049H557.674L557.791 217.677L556.297 217.549ZM513.719 217.549L512.232 217.352L512.007 219.049H513.719V217.549ZM534.617 59.4431V57.9431H533.302L533.13 59.2465L534.617 59.4431ZM572.312 161.103V162.603H573.997L573.802 160.93L572.312 161.103ZM566.062 94.7946L567.558 94.6762L564.577 94.5897L566.062 94.7946ZM558.25 161.103L556.754 160.992L556.634 162.603H558.25V161.103ZM592.606 59.6639L616.141 217.769L619.109 217.328L595.573 59.2222L592.606 59.6639ZM617.625 216.049H575.535V219.049H617.625V216.049ZM577.031 217.441L574.98 189.023L571.988 189.239L574.039 217.656L577.031 217.441ZM573.484 187.631H558.738V190.631H573.484V187.631ZM557.244 189.002L554.802 217.42L557.791 217.677L560.233 189.259L557.244 189.002ZM556.297 216.049H513.719V219.049H556.297V216.049ZM515.206 217.745L536.104 59.6396L533.13 59.2465L512.232 217.352L515.206 217.745ZM534.617 60.9431H594.09V57.9431H534.617V60.9431ZM573.802 160.93C571.722 143.051 569.64 120.967 567.558 94.6762L564.567 94.9131C566.651 121.226 568.736 143.348 570.823 161.277L573.802 160.93ZM564.577 94.5897C560.409 124.802 557.8 146.944 556.754 160.992L559.746 161.215C560.784 147.267 563.382 125.204 567.548 94.9996L564.577 94.5897ZM558.25 162.603H572.312V159.603H558.25V162.603Z" fill="black"/>
<path d="M237.116 61.1733L232.257 166.726C231.706 178.692 230.928 187.096 229.923 191.938C228.921 196.715 226.383 201.583 222.31 206.545C218.239 211.441 212.988 215.077 206.557 217.453C200.194 219.767 192.753 220.728 184.233 220.336C174.803 219.901 166.55 217.957 159.475 214.503C152.4 211.049 147.189 206.736 143.843 201.564C140.496 196.391 138.625 191.026 138.229 185.468C137.836 179.845 138.05 168.124 138.87 150.304L143.173 56.8486L184.242 58.7392L178.791 177.169C178.473 184.062 178.627 188.501 179.253 190.485C179.946 192.407 181.431 193.42 183.708 193.525C186.309 193.645 188.015 192.681 188.826 190.633C189.706 188.522 190.326 183.533 190.689 175.663L196.046 59.2826L237.116 61.1733Z" fill="url(#paint0_linear_114_143)"/>
<path d="M237.116 61.1733L238.615 61.2423L238.683 59.7438L237.185 59.6749L237.116 61.1733ZM229.923 191.938L231.391 192.246L231.392 192.243L229.923 191.938ZM222.31 206.545L223.463 207.504L223.469 207.497L222.31 206.545ZM206.557 217.453L207.07 218.863L207.077 218.86L206.557 217.453ZM138.229 185.468L136.733 185.573L136.733 185.575L138.229 185.468ZM143.173 56.8486L143.242 55.3502L141.743 55.2812L141.674 56.7796L143.173 56.8486ZM184.242 58.7392L185.741 58.8082L185.81 57.3098L184.311 57.2408L184.242 58.7392ZM179.253 190.485L177.822 190.936L177.831 190.965L177.842 190.994L179.253 190.485ZM188.826 190.633L187.442 190.056L187.437 190.068L187.432 190.08L188.826 190.633ZM196.046 59.2826L196.115 57.7842L194.617 57.7152L194.548 59.2136L196.046 59.2826ZM235.618 61.1043L230.759 166.657L233.755 166.795L238.615 61.2423L235.618 61.1043ZM230.759 166.657C230.208 178.624 229.433 186.92 228.455 191.633L231.392 192.243C232.424 187.272 233.205 178.76 233.755 166.795L230.759 166.657ZM228.455 191.63C227.516 196.108 225.117 200.762 221.151 205.593L223.469 207.497C227.649 202.405 230.327 197.322 231.391 192.246L228.455 191.63ZM221.156 205.586C217.267 210.264 212.241 213.754 206.037 216.046L207.077 218.86C213.735 216.4 219.212 212.618 223.463 207.504L221.156 205.586ZM206.045 216.043C199.909 218.274 192.673 219.223 184.302 218.837L184.164 221.834C192.832 222.233 200.479 221.259 207.07 218.863L206.045 216.043ZM184.302 218.837C175.037 218.411 166.991 216.504 160.133 213.155L158.817 215.851C166.109 219.411 174.569 221.392 184.164 221.834L184.302 218.837ZM160.133 213.155C153.236 209.788 148.264 205.637 145.102 200.749L142.583 202.379C146.114 207.836 151.564 212.31 158.817 215.851L160.133 213.155ZM145.102 200.749C141.878 195.766 140.101 190.641 139.725 185.362L136.733 185.575C137.149 191.411 139.114 197.017 142.583 202.379L145.102 200.749ZM139.726 185.364C139.34 179.843 139.548 168.211 140.369 150.373L137.372 150.235C136.552 168.037 136.333 179.848 136.733 185.573L139.726 185.364ZM140.369 150.373L144.671 56.9176L141.674 56.7796L137.372 150.235L140.369 150.373ZM143.104 58.347L184.173 60.2376L184.311 57.2408L143.242 55.3502L143.104 58.347ZM182.744 58.6703L177.292 177.1L180.289 177.237L185.741 58.8082L182.744 58.6703ZM177.292 177.1C177.132 180.567 177.09 183.445 177.169 185.72C177.247 187.958 177.444 189.737 177.822 190.936L180.683 190.034C180.436 189.249 180.244 187.817 180.167 185.616C180.092 183.452 180.131 180.663 180.289 177.237L177.292 177.1ZM177.842 190.994C178.281 192.21 179.003 193.217 180.041 193.926C181.067 194.626 182.296 194.962 183.639 195.024L183.777 192.027C182.843 191.984 182.191 191.761 181.732 191.448C181.285 191.142 180.919 190.682 180.664 189.976L177.842 190.994ZM183.639 195.024C185.131 195.092 186.509 194.857 187.676 194.198C188.865 193.526 189.706 192.486 190.221 191.185L187.432 190.08C187.136 190.827 186.718 191.293 186.2 191.586C185.661 191.891 184.886 192.078 183.777 192.027L183.639 195.024ZM190.211 191.209C190.735 189.952 191.128 188.001 191.44 185.493C191.757 182.944 192.005 179.687 192.187 175.732L189.19 175.594C189.01 179.509 188.767 182.681 188.463 185.122C188.154 187.604 187.797 189.203 187.442 190.056L190.211 191.209ZM192.187 175.732L197.545 59.3516L194.548 59.2136L189.19 175.594L192.187 175.732ZM195.977 60.781L237.047 62.6717L237.185 59.6749L196.115 57.7842L195.977 60.781Z" fill="black"/>
<path d="M290.595 57.6446L297.321 163.094C298.328 178.883 298.814 189.061 298.779 193.63C298.74 198.134 297.505 202.29 295.073 206.098C292.706 209.902 289.294 212.664 284.837 214.384C280.441 216.034 273.695 217.149 264.599 217.729L244.035 219.041L242.276 191.46C244.758 191.498 246.551 191.481 247.655 191.411C250.579 191.224 252.84 190.362 254.438 188.825C256.036 187.288 256.899 185.472 257.026 183.376C257.153 181.28 257.026 177.244 256.645 171.266L249.565 60.2615L290.595 57.6446Z" fill="url(#paint1_linear_114_143)"/>
<path d="M290.595 57.6446L292.092 57.5492L291.997 56.0522L290.5 56.1477L290.595 57.6446ZM298.779 193.63L300.279 193.643L300.279 193.641L298.779 193.63ZM295.073 206.098L293.809 205.291L293.804 205.298L293.799 205.306L295.073 206.098ZM284.837 214.384L285.365 215.788L285.377 215.783L284.837 214.384ZM244.035 219.041L242.538 219.136L242.634 220.633L244.131 220.538L244.035 219.041ZM242.276 191.46L242.299 189.96L240.676 189.936L240.779 191.556L242.276 191.46ZM254.438 188.825L253.398 187.744L254.438 188.825ZM249.565 60.2615L249.47 58.7645L247.973 58.86L248.068 60.357L249.565 60.2615ZM289.098 57.7401L295.824 163.19L298.818 162.999L292.092 57.5492L289.098 57.7401ZM295.824 163.19C296.832 178.993 297.313 189.114 297.279 193.619L300.279 193.641C300.314 189.008 299.824 178.773 298.818 162.999L295.824 163.19ZM297.279 193.617C297.243 197.838 296.089 201.719 293.809 205.291L296.337 206.905C298.92 202.861 300.238 198.429 300.279 193.643L297.279 193.617ZM293.799 205.306C291.616 208.814 288.472 211.374 284.297 212.984L285.377 215.783C290.117 213.955 293.796 210.99 296.347 206.891L293.799 205.306ZM284.31 212.979C280.128 214.549 273.563 215.655 264.504 216.232L264.695 219.226C273.827 218.644 280.754 217.519 285.365 215.788L284.31 212.979ZM264.504 216.232L243.94 217.544L244.131 220.538L264.695 219.226L264.504 216.232ZM245.532 218.945L243.773 191.365L240.779 191.556L242.538 219.136L245.532 218.945ZM242.254 192.96C244.738 192.998 246.582 192.982 247.751 192.908L247.56 189.914C246.519 189.98 244.777 189.998 242.299 189.96L242.254 192.96ZM247.751 192.908C250.913 192.706 253.552 191.759 255.478 189.906L253.398 187.744C252.128 188.966 250.244 189.743 247.56 189.914L247.751 192.908ZM255.478 189.906C257.33 188.124 258.372 185.961 258.523 183.467L255.529 183.285C255.426 184.983 254.742 186.452 253.398 187.744L255.478 189.906ZM258.523 183.467C258.657 181.264 258.523 177.136 258.142 171.171L255.148 171.362C255.53 177.351 255.65 181.297 255.529 183.285L258.523 183.467ZM258.142 171.171L251.062 60.166L248.068 60.357L255.148 171.362L258.142 171.171ZM249.661 61.7584L290.691 59.1416L290.5 56.1477L249.47 58.7645L249.661 61.7584Z" fill="black"/>
<path d="M501.101 57.5504L506.232 215.573L470.216 216.742L446.508 145.599L448.841 217.436L414.484 218.552L409.352 60.5299L443.709 59.4142L469.054 129.82L466.744 58.6661L501.101 57.5504Z" fill="url(#paint2_linear_114_143)"/>
<path d="M501.101 57.5504L502.6 57.5017L502.551 56.0025L501.052 56.0512L501.101 57.5504ZM506.232 215.573L506.281 217.072L507.78 217.023L507.731 215.524L506.232 215.573ZM470.216 216.742L468.793 217.216L469.147 218.278L470.265 218.241L470.216 216.742ZM446.508 145.599L447.931 145.125L445.009 145.648L446.508 145.599ZM448.841 217.436L448.889 218.936L450.389 218.887L450.34 217.388L448.841 217.436ZM414.484 218.552L412.985 218.601L413.033 220.1L414.532 220.051L414.484 218.552ZM409.352 60.5299L409.303 59.0307L407.804 59.0794L407.853 60.5786L409.352 60.5299ZM443.709 59.4142L445.12 58.9061L444.751 57.8796L443.66 57.915L443.709 59.4142ZM469.054 129.82L467.643 130.328L470.554 129.771L469.054 129.82ZM466.744 58.6661L466.695 57.1669L465.196 57.2156L465.244 58.7148L466.744 58.6661ZM499.601 57.5991L504.733 215.621L507.731 215.524L502.6 57.5017L499.601 57.5991ZM506.184 214.073L470.167 215.243L470.265 218.241L506.281 217.072L506.184 214.073ZM471.639 216.268L447.931 145.125L445.085 146.073L468.793 217.216L471.639 216.268ZM445.009 145.648L447.341 217.485L450.34 217.388L448.007 145.551L445.009 145.648ZM448.792 215.937L414.435 217.053L414.532 220.051L448.889 218.936L448.792 215.937ZM415.983 218.503L410.851 60.4812L407.853 60.5786L412.985 218.601L415.983 218.503ZM409.401 62.0291L443.758 60.9134L443.66 57.915L409.303 59.0307L409.401 62.0291ZM442.298 59.9222L467.643 130.328L470.466 129.312L445.12 58.9061L442.298 59.9222ZM470.554 129.771L468.243 58.6174L465.244 58.7148L467.555 129.869L470.554 129.771ZM466.792 60.1653L501.149 59.0496L501.052 56.0512L466.695 57.1669L466.792 60.1653Z" fill="black"/>
<path d="M584.99 55.2249L629.039 208.883L587.312 214.398L581.555 186.494L566.936 188.426L568.239 216.919L526.028 222.498L526.03 63.0177L584.99 55.2249ZM576.721 158.862C572.309 141.386 567.348 119.746 561.836 93.9441C561.664 124.438 561.978 146.692 562.779 160.705L576.721 158.862Z" fill="url(#paint3_linear_114_143)"/>
<path d="M584.99 55.2249L586.432 54.8116L586.075 53.5684L584.793 53.7379L584.99 55.2249ZM629.039 208.883L629.235 210.37L630.96 210.143L630.48 208.47L629.039 208.883ZM587.312 214.398L585.842 214.702L586.124 216.068L587.508 215.886L587.312 214.398ZM581.555 186.494L583.024 186.191L582.742 184.824L581.358 185.007L581.555 186.494ZM566.936 188.426L566.739 186.939L565.375 187.12L565.437 188.495L566.936 188.426ZM568.239 216.919L568.436 218.406L569.8 218.226L569.738 216.851L568.239 216.919ZM526.028 222.498L524.528 222.498L524.528 224.21L526.225 223.985L526.028 222.498ZM526.03 63.0177L525.833 61.5306L524.53 61.7029L524.53 63.0177L526.03 63.0177ZM576.721 158.862L576.917 160.349L578.587 160.128L578.175 158.495L576.721 158.862ZM561.836 93.9441L563.303 93.6308L560.336 93.9357L561.836 93.9441ZM562.779 160.705L561.282 160.79L561.374 162.403L562.976 162.192L562.779 160.705ZM583.548 55.6383L627.597 209.297L630.48 208.47L586.432 54.8116L583.548 55.6383ZM628.842 207.396L587.115 212.911L587.508 215.886L629.235 210.37L628.842 207.396ZM588.781 214.095L583.024 186.191L580.086 186.797L585.842 214.702L588.781 214.095ZM581.358 185.007L566.739 186.939L567.132 189.914L581.751 187.981L581.358 185.007ZM565.437 188.495L566.741 216.988L569.738 216.851L568.434 188.358L565.437 188.495ZM568.043 215.432L525.832 221.011L526.225 223.985L568.436 218.406L568.043 215.432ZM527.528 222.498L527.53 63.0177L524.53 63.0177L524.528 222.498L527.528 222.498ZM526.226 64.5047L585.186 56.712L584.793 53.7379L525.833 61.5306L526.226 64.5047ZM578.175 158.495C573.77 141.043 568.812 119.423 563.303 93.6308L560.369 94.2575C565.883 120.07 570.849 141.729 575.266 159.229L578.175 158.495ZM560.336 93.9357C560.164 124.433 560.478 146.727 561.282 160.79L564.277 160.619C563.478 146.656 563.164 124.443 563.336 93.9526L560.336 93.9357ZM562.976 162.192L576.917 160.349L576.524 157.375L562.583 159.218L562.976 162.192Z" fill="black"/>
<path d="M373.42 55.8172L407.882 211.906L365.894 214.83L361.874 186.623L347.163 187.647L346.702 216.166L304.227 219.124L314.091 59.9485L373.42 55.8172ZM358.758 158.745C355.436 141.029 351.822 119.124 347.917 93.0303C345.858 123.455 344.796 145.685 344.729 159.721L358.758 158.745Z" fill="url(#paint4_linear_114_143)"/>
<path d="M373.42 55.8172L374.885 55.4938L374.606 54.231L373.316 54.3208L373.42 55.8172ZM407.882 211.906L407.986 213.402L409.722 213.281L409.347 211.582L407.882 211.906ZM365.894 214.83L364.409 215.041L364.606 216.423L365.998 216.326L365.894 214.83ZM361.874 186.623L363.359 186.411L363.162 185.029L361.769 185.126L361.874 186.623ZM347.163 187.647L347.059 186.151L345.686 186.246L345.663 187.623L347.163 187.647ZM346.702 216.166L346.806 217.662L348.179 217.567L348.202 216.19L346.702 216.166ZM304.227 219.124L302.729 219.031L302.624 220.739L304.331 220.62L304.227 219.124ZM314.091 59.9485L313.987 58.4522L312.676 58.5435L312.594 59.8558L314.091 59.9485ZM358.758 158.745L358.862 160.241L360.542 160.124L360.232 158.468L358.758 158.745ZM347.917 93.0303L349.4 92.8083L346.42 92.9291L347.917 93.0303ZM344.729 159.721L343.229 159.714L343.221 161.33L344.833 161.218L344.729 159.721ZM371.956 56.1405L406.417 212.229L409.347 211.582L374.885 55.4938L371.956 56.1405ZM407.778 210.409L365.789 213.333L365.998 216.326L407.986 213.402L407.778 210.409ZM367.379 214.618L363.359 186.411L360.389 186.834L364.409 215.041L367.379 214.618ZM361.769 185.126L347.059 186.151L347.267 189.144L361.978 188.119L361.769 185.126ZM345.663 187.623L345.202 216.142L348.202 216.19L348.663 187.671L345.663 187.623ZM346.598 214.67L304.122 217.627L304.331 220.62L346.806 217.662L346.598 214.67ZM305.724 219.217L315.589 60.0413L312.594 59.8558L302.729 219.031L305.724 219.217ZM314.196 61.4449L373.525 57.3135L373.316 54.3208L313.987 58.4522L314.196 61.4449ZM360.232 158.468C356.915 140.777 353.304 118.891 349.4 92.8083L346.433 93.2523C350.34 119.357 353.957 141.281 357.283 159.021L360.232 158.468ZM346.42 92.9291C344.362 123.358 343.296 145.628 343.229 159.714L346.229 159.729C346.296 145.743 347.355 123.552 349.413 93.1315L346.42 92.9291ZM344.833 161.218L358.862 160.241L358.653 157.248L344.625 158.225L344.833 161.218Z" fill="black"/>
<path d="M109.478 101.867L71.786 107.973L69.9121 96.4048C69.0377 91.0064 67.9987 87.6462 66.7953 86.3243C65.5918 85.0023 63.8655 84.5235 61.6161 84.8878C59.174 85.2834 57.4716 86.5815 56.509 88.7819C55.6107 90.972 55.4895 94.0914 56.1453 98.1402C56.9885 103.346 58.3305 107.152 60.1712 109.557C61.9476 111.974 66.2868 114.536 73.1887 117.243C92.9861 125.05 105.787 132.012 111.593 138.128C117.398 144.245 121.54 154.951 124.017 170.246C125.818 181.364 125.828 189.772 124.047 195.468C122.33 201.155 118.036 206.401 111.164 211.208C104.281 215.95 95.8916 219.123 85.9945 220.726C75.1335 222.485 65.5139 221.933 57.1356 219.069C48.8217 216.195 42.9604 211.769 39.5519 205.792C36.1435 199.815 33.4919 190.978 31.5972 179.281L29.9419 169.063L67.6342 162.957L70.7105 181.948C71.6578 187.796 72.7809 191.473 74.0799 192.977C75.4431 194.471 77.4743 194.999 80.1735 194.562C82.8727 194.125 84.6931 192.742 85.6349 190.413C86.641 188.073 86.8057 184.815 86.129 180.638C84.6403 171.448 82.4138 165.642 79.4493 163.22C76.4206 160.809 69.3252 157.111 58.1631 152.125C46.9906 147.076 39.5209 143.307 35.754 140.817C31.9871 138.328 28.5791 134.593 25.53 129.613C22.5451 124.622 20.3812 117.981 19.0383 109.691C17.102 97.7376 17.1964 88.7527 19.3217 82.7365C21.5112 76.7099 25.7622 71.6024 32.0747 67.4141C38.3769 63.1616 46.3479 60.2545 55.9879 58.693C66.5276 56.9857 75.7686 57.2365 83.711 59.4454C91.7177 61.6439 97.3315 65.1534 100.553 69.9738C103.828 74.7195 106.47 83.2941 108.479 95.6975L109.478 101.867Z" fill="url(#paint5_linear_114_143)"/>
<path d="M109.478 101.867L109.718 103.348L111.199 103.108L110.959 101.627L109.478 101.867ZM71.786 107.973L70.3053 108.213L70.5452 109.693L72.0259 109.453L71.786 107.973ZM56.509 88.7819L55.1348 88.1808L55.1278 88.1966L55.1213 88.2127L56.509 88.7819ZM60.1712 109.557L61.3797 108.669L61.3712 108.657L61.3625 108.646L60.1712 109.557ZM73.1887 117.243L73.739 115.847L73.7364 115.846L73.1887 117.243ZM124.047 195.468L122.615 195.021L122.613 195.028L122.611 195.035L124.047 195.468ZM111.164 211.208L112.015 212.443L112.023 212.437L111.164 211.208ZM57.1356 219.069L56.6455 220.487L56.6505 220.489L57.1356 219.069ZM39.5519 205.792L38.2489 206.535L39.5519 205.792ZM29.9419 169.063L29.7021 167.582L28.2214 167.822L28.4612 169.303L29.9419 169.063ZM67.6342 162.957L69.1149 162.718L68.875 161.237L67.3943 161.477L67.6342 162.957ZM74.0799 192.977L72.9445 193.957L72.958 193.973L72.9718 193.988L74.0799 192.977ZM85.6349 190.413L84.257 189.82L84.2505 189.835L84.2443 189.85L85.6349 190.413ZM79.4493 163.22L80.3983 162.058L80.391 162.052L80.3836 162.046L79.4493 163.22ZM58.1631 152.125L57.5453 153.492L57.5514 153.495L58.1631 152.125ZM25.53 129.613L24.2427 130.382L24.2467 130.389L24.2507 130.396L25.53 129.613ZM19.3217 82.7365L17.9118 82.2243L17.9073 82.2369L19.3217 82.7365ZM32.0747 67.4141L32.904 68.6641L32.9137 68.6575L32.0747 67.4141ZM83.711 59.4454L83.3091 60.8906L83.3138 60.8919L83.711 59.4454ZM100.553 69.9738L99.3055 70.8072L99.3117 70.8165L99.3181 70.8257L100.553 69.9738ZM109.238 100.386L71.5462 106.492L72.0259 109.453L109.718 103.348L109.238 100.386ZM73.2667 107.733L71.3928 96.1649L68.4314 96.6446L70.3053 108.213L73.2667 107.733ZM71.3928 96.1649C70.9498 93.4302 70.4582 91.1653 69.9101 89.3928C69.3766 87.6673 68.7381 86.2303 67.9045 85.3145L65.6861 87.334C66.0558 87.7402 66.5386 88.6443 67.044 90.279C67.5349 91.8666 68 93.981 68.4314 96.6446L71.3928 96.1649ZM67.9045 85.3145C66.2659 83.5145 63.9706 82.9869 61.3763 83.4071L61.856 86.3685C63.7603 86.0601 64.9178 86.4901 65.6861 87.334L67.9045 85.3145ZM61.3763 83.4071C58.4494 83.8813 56.3089 85.4968 55.1348 88.1808L57.8833 89.3831C58.6344 87.6662 59.8986 86.6856 61.856 86.3685L61.3763 83.4071ZM55.1213 88.2127C54.0664 90.7843 53.9929 94.2336 54.6646 98.3801L57.626 97.9004C56.986 93.9493 57.155 91.1597 57.8968 89.3512L55.1213 88.2127ZM54.6646 98.3801C55.5221 103.673 56.9153 107.77 58.9799 110.469L61.3625 108.646C59.7457 106.533 58.455 103.018 57.626 97.9004L54.6646 98.3801ZM58.9627 110.446C60.0255 111.892 61.7541 113.259 63.9953 114.583C66.2574 115.918 69.1469 117.269 72.641 118.639L73.7364 115.846C70.3286 114.51 67.5975 113.226 65.5205 111.999C63.4225 110.761 62.0933 109.64 61.3797 108.669L58.9627 110.446ZM72.6384 118.638C82.5035 122.528 90.5926 126.196 96.9212 129.637C103.269 133.089 107.761 136.27 110.505 139.161L112.681 137.096C109.619 133.87 104.808 130.512 98.3544 127.002C91.8816 123.482 83.6713 119.764 73.739 115.847L72.6384 118.638ZM110.505 139.161C115.991 144.941 120.072 155.273 122.537 170.486L125.498 170.006C123.007 154.628 118.805 143.548 112.681 137.096L110.505 139.161ZM122.537 170.486C124.328 181.544 124.29 189.666 122.615 195.021L125.479 195.916C127.367 189.877 127.309 181.185 125.498 170.006L122.537 170.486ZM122.611 195.035C121.024 200.289 117.011 205.287 110.304 209.978L112.023 212.437C119.06 207.515 123.636 202.02 125.483 195.902L122.611 195.035ZM110.312 209.972C103.646 214.566 95.4755 217.67 85.7547 219.245L86.2344 222.207C96.3076 220.575 104.916 217.334 112.015 212.443L110.312 209.972ZM85.7547 219.245C75.0787 220.974 65.7162 220.417 57.6208 217.65L56.6505 220.489C65.3116 223.449 75.1883 223.996 86.2344 222.207L85.7547 219.245ZM57.6257 217.651C49.5571 214.862 44.0376 210.63 40.855 205.049L38.2489 206.535C41.8833 212.908 48.0862 217.528 56.6455 220.487L57.6257 217.651ZM40.855 205.049C37.5771 199.301 34.9615 190.67 33.0779 179.042L30.1165 179.521C32.0222 191.286 34.7098 200.329 38.2489 206.535L40.855 205.049ZM33.0779 179.042L31.4226 168.823L28.4612 169.303L30.1165 179.521L33.0779 179.042ZM30.1818 170.544L67.8741 164.438L67.3943 161.477L29.7021 167.582L30.1818 170.544ZM66.1535 163.197L69.2298 182.188L72.1912 181.708L69.1149 162.718L66.1535 163.197ZM69.2298 182.188C69.7092 185.148 70.2398 187.602 70.8288 189.53C71.4049 191.416 72.0835 192.96 72.9445 193.957L75.2152 191.997C74.7774 191.49 74.2449 190.444 73.6979 188.653C73.1638 186.905 72.6591 184.597 72.1912 181.708L69.2298 182.188ZM72.9718 193.988C74.7907 195.981 77.409 196.53 80.4133 196.043L79.9336 193.081C77.5395 193.469 76.0954 192.961 75.1879 191.966L72.9718 193.988ZM80.4133 196.043C83.5751 195.531 85.867 193.84 87.0255 190.975L84.2443 189.85C83.5193 191.644 82.1702 192.719 79.9336 193.081L80.4133 196.043ZM87.0129 191.005C88.1837 188.283 88.305 184.69 87.6097 180.398L84.6483 180.878C85.3064 184.94 85.0983 187.864 84.257 189.82L87.0129 191.005ZM87.6097 180.398C86.8562 175.746 85.9065 171.887 84.7431 168.854C83.5886 165.843 82.172 163.507 80.3983 162.058L78.5003 164.382C79.6911 165.354 80.87 167.132 81.942 169.928C83.0051 172.7 83.9132 176.339 84.6483 180.878L87.6097 180.398ZM80.3836 162.046C77.1793 159.495 69.8999 155.724 58.7748 150.756L57.5514 153.495C68.7504 158.497 75.6619 162.122 78.515 164.393L80.3836 162.046ZM58.7808 150.759C47.598 145.705 40.2339 141.98 36.5811 139.566L34.9269 142.069C38.8079 144.634 46.3831 148.448 57.5453 153.492L58.7808 150.759ZM36.5811 139.566C33.0428 137.227 29.7761 133.675 26.8093 128.829L24.2507 130.396C27.3822 135.51 30.9314 139.428 34.9269 142.069L36.5811 139.566ZM26.8173 128.843C23.9629 124.07 21.844 117.631 20.519 109.451L17.5576 109.931C18.9185 118.332 21.1274 125.174 24.2427 130.382L26.8173 128.843ZM20.519 109.451C18.5928 97.5602 18.7404 88.8855 20.736 83.2361L17.9073 82.2369C15.6525 88.6199 15.6111 97.9149 17.5576 109.931L20.519 109.451ZM20.7315 83.2487C22.7925 77.5757 26.8089 72.7081 32.904 68.664L31.2454 66.1642C24.7155 70.4967 20.2298 75.844 17.9118 82.2243L20.7315 83.2487ZM32.9137 68.6575C38.9921 64.556 46.7435 61.71 56.2277 60.1737L55.748 57.2123C45.9523 58.799 37.7616 61.7672 31.2357 66.1707L32.9137 68.6575ZM56.2277 60.1737C66.6141 58.4912 75.6276 58.7542 83.3091 60.8905L84.1129 58.0002C75.9097 55.7188 66.441 55.4801 55.748 57.2123L56.2277 60.1737ZM83.3138 60.8919C91.1208 63.0355 96.3562 66.3936 99.3055 70.8072L101.8 69.1404C98.3069 63.9132 92.3145 60.2523 84.1082 57.9989L83.3138 60.8919ZM99.3181 70.8257C102.388 75.2736 104.992 83.5538 106.998 95.9373L109.96 95.4576C107.947 83.0343 105.268 74.1653 101.787 69.1218L99.3181 70.8257ZM106.998 95.9373L107.998 102.107L110.959 101.627L109.96 95.4576L106.998 95.9373Z" fill="black"/>
<circle cx="663.722" cy="201.597" r="20" fill="url(#paint6_linear_114_143)"/>
<circle cx="661.722" cy="200.597" r="18.5" stroke="black" stroke-width="3"/>
<defs>
<linearGradient id="paint0_linear_114_143" x1="225.704" y1="-63.3987" x2="198.641" y2="217.122" gradientUnits="userSpaceOnUse">
<stop stop-color="#0636E0"/>
<stop offset="1" stop-color="#ECF1FF"/>
</linearGradient>
<linearGradient id="paint1_linear_114_143" x1="308.691" y1="-67.6767" x2="312.5" y2="214.121" gradientUnits="userSpaceOnUse">
<stop stop-color="#0636E0"/>
<stop offset="1" stop-color="#ECF1FF"/>
</linearGradient>
<linearGradient id="paint2_linear_114_143" x1="481.618" y1="-65.7977" x2="476.627" y2="215.981" gradientUnits="userSpaceOnUse">
<stop stop-color="#0636E0"/>
<stop offset="1" stop-color="#ECF1FF"/>
</linearGradient>
<linearGradient id="paint3_linear_114_143" x1="574.039" y1="-68.3208" x2="596.907" y2="212.573" gradientUnits="userSpaceOnUse">
<stop stop-color="#0636E0"/>
<stop offset="1" stop-color="#ECF1FF"/>
</linearGradient>
<linearGradient id="paint4_linear_114_143" x1="370.132" y1="-68.1693" x2="375.584" y2="213.601" gradientUnits="userSpaceOnUse">
<stop stop-color="#0636E0"/>
<stop offset="1" stop-color="#ECF1FF"/>
</linearGradient>
<linearGradient id="paint5_linear_114_143" x1="40.8417" y1="-61.0206" x2="63.7612" y2="219.342" gradientUnits="userSpaceOnUse">
<stop stop-color="#0636E0"/>
<stop offset="1" stop-color="#ECF1FF"/>
</linearGradient>
<linearGradient id="paint6_linear_114_143" x1="663.722" y1="158.597" x2="663.722" y2="221.597" gradientUnits="userSpaceOnUse">
<stop stop-color="#0636E0"/>
<stop offset="1" stop-color="#ECF1FF"/>
</linearGradient>
</defs>
</svg>
