<svg width="180" height="180" viewBox="0 0 180 180" fill="none" xmlns="http://www.w3.org/2000/svg">
<path d="M89.9994 90C77.716 90 67.2007 85.6264 58.4535 76.8791C49.7063 68.1319 45.3327 57.6166 45.3327 45.3333C45.3327 33.05 49.7063 22.5347 58.4535 13.7875C67.2007 5.04024 77.716 0.666626 89.9994 0.666626C102.283 0.666626 112.798 5.04024 121.545 13.7875C130.292 22.5347 134.666 33.05 134.666 45.3333C134.666 57.6166 130.292 68.1319 121.545 76.8791C112.798 85.6264 102.283 90 89.9994 90ZM0.666016 179.333V148.067C0.666016 141.739 2.29635 135.921 5.55702 130.613C8.81769 125.305 13.1429 121.259 18.5327 118.475C30.0716 112.706 41.7966 108.377 53.7077 105.488C65.6188 102.6 77.716 101.159 89.9994 101.167C102.283 101.167 114.38 102.611 126.291 105.499C138.202 108.388 149.927 112.713 161.466 118.475C166.863 121.267 171.192 125.316 174.453 130.624C177.714 135.932 179.34 141.746 179.333 148.067V179.333H0.666016Z" fill="black"/>
</svg>
