<svg width="165" height="187" viewBox="0 0 165 187" fill="none" xmlns="http://www.w3.org/2000/svg">
<g clip-path="url(#clip0_217_649)">
<path d="M117.636 117.094L82.5 151.937L47.3638 117.094C21.0301 118.226 0 139.592 0 165.962V169.468C0 179.147 7.91853 187 17.6786 187H147.321C157.081 187 165 179.147 165 169.468V165.962C165 139.592 143.97 118.226 117.636 117.094ZM5.00893 29.1454L7.36607 29.6933V51.023C4.78795 52.557 2.94643 55.2232 2.94643 58.4372C2.94643 61.5052 4.64062 64.0618 7.0346 65.6323L1.28906 88.3865C0.662946 90.9066 2.0625 93.4997 4.08817 93.4997H19.4833C21.5089 93.4997 22.9085 90.9066 22.2824 88.3865L16.5368 65.6323C18.9308 64.0618 20.625 61.5052 20.625 58.4372C20.625 55.2232 18.7835 52.557 16.2054 51.023V31.8116L40.5134 37.6189C37.346 43.9009 35.3571 50.9134 35.3571 58.4372C35.3571 84.2593 56.4609 105.187 82.5 105.187C108.539 105.187 129.643 84.2593 129.643 58.4372C129.643 50.9134 127.691 43.9009 124.487 37.6189L159.954 29.1454C166.657 27.5384 166.657 19.2476 159.954 17.6406L89.8292 0.83977C85.0413 -0.292456 79.9955 -0.292456 75.2076 0.83977L5.00893 17.604C-1.65737 19.2111 -1.65737 27.5384 5.00893 29.1454Z" fill="black"/>
</g>
<defs>
<clipPath id="clip0_217_649">
<rect width="165" height="187" fill="white"/>
</clipPath>
</defs>
</svg>
