<svg width="620" height="305" viewBox="0 0 620 305" fill="none" xmlns="http://www.w3.org/2000/svg">
<path d="M231.984 60.1769C232.082 59.6334 231.72 59.1135 231.177 59.0158L222.319 57.4233C221.775 57.3256 221.255 57.687 221.158 58.2306C221.06 58.7742 221.421 59.2941 221.965 59.3918L229.839 60.8073L228.423 68.6811C228.326 69.2246 228.687 69.7445 229.231 69.8422C229.774 69.9399 230.294 69.5785 230.392 69.0349L231.984 60.1769ZM126.571 133.821L231.571 60.8211L230.429 59.1789L125.429 132.179L126.571 133.821Z" fill="#969696"/>
<path d="M503.222 133.975C503.76 133.853 504.098 133.317 503.975 132.778L501.978 124.002C501.856 123.464 501.32 123.127 500.782 123.249C500.243 123.372 499.906 123.908 500.028 124.446L501.803 132.247L494.002 134.022C493.464 134.144 493.127 134.68 493.249 135.218C493.372 135.757 493.908 136.094 494.446 135.972L503.222 133.975ZM386.467 60.8464L502.467 133.846L503.533 132.154L387.533 59.1536L386.467 60.8464Z" fill="#969696"/>
<circle cx="309" cy="17.5" r="17.5" fill="#969696"/>
<path d="M281.5 60C281.5 48.9543 290.454 40 301.5 40H316.5C327.546 40 336.5 48.9543 336.5 60V77H281.5V60Z" fill="#969696"/>
<path d="M315.002 51.6491L313.075 58.6542L319.141 62.6521L311.883 62.9836L309.956 69.9886L307.398 63.1884L300.14 63.5199L305.817 58.9857L303.259 52.1854L309.325 56.1834L315.002 51.6491Z" fill="white"/>
<path d="M266.616 99.1491C265.85 99.1491 265.189 98.9901 264.632 98.6719C264.079 98.3504 263.653 97.8963 263.355 97.3097C263.056 96.7197 262.907 96.0253 262.907 95.2266C262.907 94.4411 263.056 93.7517 263.355 93.1584C263.656 92.5618 264.077 92.0978 264.617 91.7663C265.158 91.4316 265.792 91.2642 266.521 91.2642C266.992 91.2642 267.436 91.3404 267.854 91.4929C268.275 91.642 268.646 91.8741 268.968 92.1889C269.292 92.5038 269.548 92.9048 269.733 93.392C269.919 93.8759 270.012 94.4527 270.012 95.1222V95.674H263.752V94.4609H268.286C268.283 94.1162 268.209 93.8097 268.063 93.5412C267.917 93.2694 267.713 93.0556 267.451 92.8999C267.193 92.7441 266.891 92.6662 266.546 92.6662C266.178 92.6662 265.855 92.7557 265.577 92.9347C265.298 93.1103 265.081 93.3423 264.926 93.6307C264.773 93.9157 264.695 94.2289 264.692 94.5703V95.6293C264.692 96.0734 264.773 96.4545 264.936 96.7727C265.098 97.0876 265.325 97.3295 265.617 97.4986C265.908 97.6643 266.25 97.7472 266.641 97.7472C266.903 97.7472 267.14 97.7107 267.352 97.6378C267.564 97.5616 267.748 97.4505 267.904 97.3047C268.059 97.1589 268.177 96.9782 268.257 96.7628L269.937 96.9517C269.831 97.3958 269.629 97.7836 269.33 98.1151C269.035 98.4432 268.658 98.6984 268.197 98.8807C267.736 99.0597 267.209 99.1491 266.616 99.1491ZM272.842 91.3636L274.383 94.1825L275.949 91.3636H277.853L275.551 95.1818L277.893 99H275.999L274.383 96.2507L272.782 99H270.873L273.2 95.1818L270.933 91.3636H272.842ZM279.245 101.864V91.3636H281.015V92.6264H281.119C281.212 92.4408 281.343 92.2436 281.512 92.0348C281.681 91.8227 281.91 91.642 282.198 91.4929C282.487 91.3404 282.854 91.2642 283.302 91.2642C283.892 91.2642 284.424 91.415 284.898 91.7166C285.375 92.0149 285.753 92.4574 286.031 93.044C286.313 93.6274 286.454 94.3433 286.454 95.1918C286.454 96.0303 286.316 96.7429 286.041 97.3295C285.766 97.9162 285.392 98.3636 284.918 98.6719C284.444 98.9801 283.907 99.1342 283.307 99.1342C282.869 99.1342 282.506 99.0613 282.218 98.9155C281.93 98.7696 281.698 98.594 281.522 98.3885C281.35 98.1797 281.215 97.9825 281.119 97.7969H281.045V101.864H279.245ZM281.01 95.1818C281.01 95.6757 281.08 96.1082 281.219 96.4794C281.361 96.8506 281.565 97.1406 281.83 97.3494C282.099 97.5549 282.424 97.6577 282.805 97.6577C283.202 97.6577 283.536 97.5516 283.804 97.3395C284.072 97.1241 284.275 96.8307 284.411 96.4595C284.55 96.085 284.619 95.6591 284.619 95.1818C284.619 94.7079 284.551 94.2869 284.415 93.919C284.28 93.5511 284.077 93.2628 283.809 93.054C283.54 92.8452 283.206 92.7408 282.805 92.7408C282.42 92.7408 282.094 92.8419 281.825 93.044C281.557 93.2462 281.353 93.5296 281.214 93.8942C281.078 94.2588 281.01 94.688 281.01 95.1818ZM291.376 99.1491C290.61 99.1491 289.949 98.9901 289.392 98.6719C288.839 98.3504 288.413 97.8963 288.114 97.3097C287.816 96.7197 287.667 96.0253 287.667 95.2266C287.667 94.4411 287.816 93.7517 288.114 93.1584C288.416 92.5618 288.837 92.0978 289.377 91.7663C289.917 91.4316 290.552 91.2642 291.281 91.2642C291.752 91.2642 292.196 91.3404 292.614 91.4929C293.035 91.642 293.406 91.8741 293.727 92.1889C294.052 92.5038 294.307 92.9048 294.493 93.392C294.679 93.8759 294.771 94.4527 294.771 95.1222V95.674H288.512V94.4609H293.046C293.043 94.1162 292.968 93.8097 292.822 93.5412C292.677 93.2694 292.473 93.0556 292.211 92.8999C291.952 92.7441 291.651 92.6662 291.306 92.6662C290.938 92.6662 290.615 92.7557 290.337 92.9347C290.058 93.1103 289.841 93.3423 289.685 93.6307C289.533 93.9157 289.455 94.2289 289.452 94.5703V95.6293C289.452 96.0734 289.533 96.4545 289.695 96.7727C289.858 97.0876 290.085 97.3295 290.376 97.4986C290.668 97.6643 291.009 97.7472 291.401 97.7472C291.662 97.7472 291.899 97.7107 292.112 97.6378C292.324 97.5616 292.508 97.4505 292.663 97.3047C292.819 97.1589 292.937 96.9782 293.016 96.7628L294.697 96.9517C294.591 97.3958 294.388 97.7836 294.09 98.1151C293.795 98.4432 293.417 98.6984 292.957 98.8807C292.496 99.0597 291.969 99.1491 291.376 99.1491ZM296.294 99V91.3636H298.039V92.6364H298.118C298.258 92.1955 298.496 91.8558 298.834 91.6172C299.176 91.3752 299.565 91.2543 300.003 91.2543C300.102 91.2543 300.213 91.2592 300.336 91.2692C300.462 91.2758 300.566 91.2874 300.649 91.304V92.9595C300.573 92.933 300.452 92.9098 300.286 92.8899C300.124 92.8667 299.966 92.8551 299.814 92.8551C299.486 92.8551 299.191 92.9264 298.929 93.0689C298.67 93.2081 298.466 93.402 298.317 93.6506C298.168 93.8991 298.094 94.1858 298.094 94.5107V99H296.294ZM306.068 91.3636V92.7557H301.678V91.3636H306.068ZM302.762 89.5341H304.562V96.7031C304.562 96.9451 304.598 97.1307 304.671 97.2599C304.747 97.3859 304.847 97.4721 304.969 97.5185C305.092 97.5649 305.228 97.5881 305.377 97.5881C305.49 97.5881 305.592 97.5798 305.685 97.5632C305.781 97.5466 305.854 97.5317 305.904 97.5185L306.207 98.9254C306.111 98.9586 305.974 98.995 305.795 99.0348C305.619 99.0746 305.403 99.0978 305.148 99.1044C304.698 99.1177 304.291 99.0497 303.93 98.9006C303.569 98.7481 303.282 98.5128 303.07 98.1946C302.861 97.8764 302.759 97.4787 302.762 97.0014V89.5341ZM311.046 101.864V91.3636H312.816V92.6264H312.92C313.013 92.4408 313.144 92.2436 313.313 92.0348C313.482 91.8227 313.711 91.642 313.999 91.4929C314.287 91.3404 314.655 91.2642 315.103 91.2642C315.693 91.2642 316.225 91.415 316.699 91.7166C317.176 92.0149 317.554 92.4574 317.832 93.044C318.114 93.6274 318.255 94.3433 318.255 95.1918C318.255 96.0303 318.117 96.7429 317.842 97.3295C317.567 97.9162 317.192 98.3636 316.718 98.6719C316.244 98.9801 315.708 99.1342 315.108 99.1342C314.67 99.1342 314.307 99.0613 314.019 98.9155C313.73 98.7696 313.498 98.594 313.323 98.3885C313.15 98.1797 313.016 97.9825 312.92 97.7969H312.846V101.864H311.046ZM312.811 95.1818C312.811 95.6757 312.88 96.1082 313.02 96.4794C313.162 96.8506 313.366 97.1406 313.631 97.3494C313.9 97.5549 314.224 97.6577 314.605 97.6577C315.003 97.6577 315.336 97.5516 315.605 97.3395C315.873 97.1241 316.075 96.8307 316.211 96.4595C316.35 96.085 316.42 95.6591 316.42 95.1818C316.42 94.7079 316.352 94.2869 316.216 93.919C316.08 93.5511 315.878 93.2628 315.61 93.054C315.341 92.8452 315.007 92.7408 314.605 92.7408C314.221 92.7408 313.895 92.8419 313.626 93.044C313.358 93.2462 313.154 93.5296 313.015 93.8942C312.879 94.2588 312.811 94.688 312.811 95.1818ZM319.796 99V91.3636H321.541V92.6364H321.62C321.76 92.1955 321.998 91.8558 322.336 91.6172C322.678 91.3752 323.067 91.2543 323.505 91.2543C323.604 91.2543 323.715 91.2592 323.838 91.2692C323.964 91.2758 324.068 91.2874 324.151 91.304V92.9595C324.075 92.933 323.954 92.9098 323.788 92.8899C323.626 92.8667 323.468 92.8551 323.316 92.8551C322.988 92.8551 322.693 92.9264 322.431 93.0689C322.172 93.2081 321.968 93.402 321.819 93.6506C321.67 93.8991 321.596 94.1858 321.596 94.5107V99H319.796ZM325.347 99V91.3636H327.146V99H325.347ZM326.251 90.2798C325.966 90.2798 325.721 90.1854 325.516 89.9964C325.31 89.8042 325.207 89.5739 325.207 89.3054C325.207 89.0336 325.31 88.8033 325.516 88.6143C325.721 88.4221 325.966 88.326 326.251 88.326C326.54 88.326 326.785 88.4221 326.987 88.6143C327.193 88.8033 327.295 89.0336 327.295 89.3054C327.295 89.5739 327.193 89.8042 326.987 89.9964C326.785 90.1854 326.54 90.2798 326.251 90.2798ZM330.797 94.5256V99H328.997V91.3636H330.717V92.6612H330.807C330.982 92.2337 331.262 91.8939 331.647 91.642C332.035 91.3902 332.514 91.2642 333.084 91.2642C333.611 91.2642 334.07 91.3769 334.461 91.6023C334.855 91.8277 335.16 92.1541 335.376 92.5817C335.594 93.0092 335.702 93.5279 335.699 94.1378V99H333.899V94.4162C333.899 93.9058 333.766 93.5064 333.501 93.218C333.239 92.9297 332.876 92.7855 332.412 92.7855C332.098 92.7855 331.818 92.8551 331.572 92.9943C331.33 93.1302 331.14 93.3274 331.001 93.5859C330.865 93.8445 330.797 94.1577 330.797 94.5256ZM341.341 91.3636V92.7557H336.952V91.3636H341.341ZM338.035 89.5341H339.835V96.7031C339.835 96.9451 339.872 97.1307 339.944 97.2599C340.021 97.3859 340.12 97.4721 340.243 97.5185C340.365 97.5649 340.501 97.5881 340.65 97.5881C340.763 97.5881 340.866 97.5798 340.959 97.5632C341.055 97.5466 341.128 97.5317 341.177 97.5185L341.481 98.9254C341.385 98.9586 341.247 98.995 341.068 99.0348C340.892 99.0746 340.677 99.0978 340.422 99.1044C339.971 99.1177 339.565 99.0497 339.204 98.9006C338.842 98.7481 338.556 98.5128 338.344 98.1946C338.135 97.8764 338.032 97.4787 338.035 97.0014V89.5341ZM346.145 99.1491C345.38 99.1491 344.718 98.9901 344.162 98.6719C343.608 98.3504 343.182 97.8963 342.884 97.3097C342.586 96.7197 342.436 96.0253 342.436 95.2266C342.436 94.4411 342.586 93.7517 342.884 93.1584C343.185 92.5618 343.606 92.0978 344.147 91.7663C344.687 91.4316 345.322 91.2642 346.051 91.2642C346.521 91.2642 346.966 91.3404 347.383 91.4929C347.804 91.642 348.175 91.8741 348.497 92.1889C348.822 92.5038 349.077 92.9048 349.262 93.392C349.448 93.8759 349.541 94.4527 349.541 95.1222V95.674H343.282V94.4609H347.816C347.812 94.1162 347.738 93.8097 347.592 93.5412C347.446 93.2694 347.242 93.0556 346.98 92.8999C346.722 92.7441 346.42 92.6662 346.076 92.6662C345.708 92.6662 345.385 92.7557 345.106 92.9347C344.828 93.1103 344.611 93.3423 344.455 93.6307C344.302 93.9157 344.225 94.2289 344.221 94.5703V95.6293C344.221 96.0734 344.302 96.4545 344.465 96.7727C344.627 97.0876 344.854 97.3295 345.146 97.4986C345.438 97.6643 345.779 97.7472 346.17 97.7472C346.432 97.7472 346.669 97.7107 346.881 97.6378C347.093 97.5616 347.277 97.4505 347.433 97.3047C347.589 97.1589 347.706 96.9782 347.786 96.7628L349.466 96.9517C349.36 97.3958 349.158 97.7836 348.86 98.1151C348.565 98.4432 348.187 98.6984 347.726 98.8807C347.266 99.0597 346.739 99.1491 346.145 99.1491ZM351.063 99V91.3636H352.808V92.6364H352.888C353.027 92.1955 353.266 91.8558 353.604 91.6172C353.945 91.3752 354.335 91.2543 354.772 91.2543C354.872 91.2543 354.983 91.2592 355.105 91.2692C355.231 91.2758 355.336 91.2874 355.419 91.304V92.9595C355.342 92.933 355.221 92.9098 355.056 92.8899C354.893 92.8667 354.736 92.8551 354.583 92.8551C354.255 92.8551 353.96 92.9264 353.698 93.0689C353.44 93.2081 353.236 93.402 353.087 93.6506C352.938 93.8991 352.863 94.1858 352.863 94.5107V99H351.063ZM251.611 116.149C250.845 116.149 250.184 115.99 249.627 115.672C249.074 115.35 248.648 114.896 248.35 114.31C248.051 113.72 247.902 113.025 247.902 112.227C247.902 111.441 248.051 110.752 248.35 110.158C248.651 109.562 249.072 109.098 249.612 108.766C250.153 108.432 250.787 108.264 251.517 108.264C251.987 108.264 252.431 108.34 252.849 108.493C253.27 108.642 253.641 108.874 253.963 109.189C254.287 109.504 254.543 109.905 254.728 110.392C254.914 110.876 255.007 111.453 255.007 112.122V112.674H248.747V111.461H253.282C253.278 111.116 253.204 110.81 253.058 110.541C252.912 110.269 252.708 110.056 252.446 109.9C252.188 109.744 251.886 109.666 251.541 109.666C251.174 109.666 250.85 109.756 250.572 109.935C250.294 110.11 250.076 110.342 249.921 110.631C249.768 110.916 249.69 111.229 249.687 111.57V112.629C249.687 113.073 249.768 113.455 249.931 113.773C250.093 114.088 250.32 114.33 250.612 114.499C250.903 114.664 251.245 114.747 251.636 114.747C251.898 114.747 252.135 114.711 252.347 114.638C252.559 114.562 252.743 114.451 252.899 114.305C253.054 114.159 253.172 113.978 253.252 113.763L254.932 113.952C254.826 114.396 254.624 114.784 254.326 115.115C254.031 115.443 253.653 115.698 253.192 115.881C252.731 116.06 252.204 116.149 251.611 116.149ZM263.131 108.364L260.412 116H258.423L255.704 108.364H257.623L259.378 114.036H259.457L261.217 108.364H263.131ZM266.356 116.154C265.872 116.154 265.436 116.068 265.048 115.896C264.664 115.72 264.359 115.461 264.133 115.12C263.911 114.779 263.8 114.358 263.8 113.857C263.8 113.426 263.88 113.07 264.039 112.788C264.198 112.507 264.415 112.281 264.69 112.112C264.965 111.943 265.275 111.816 265.62 111.729C265.968 111.64 266.327 111.575 266.699 111.536C267.146 111.489 267.509 111.448 267.787 111.411C268.066 111.371 268.268 111.312 268.394 111.232C268.523 111.149 268.588 111.022 268.588 110.849V110.82C268.588 110.445 268.477 110.155 268.255 109.95C268.033 109.744 267.713 109.641 267.295 109.641C266.854 109.641 266.505 109.737 266.246 109.93C265.991 110.122 265.819 110.349 265.729 110.611L264.049 110.372C264.181 109.908 264.4 109.52 264.705 109.209C265.01 108.894 265.383 108.659 265.824 108.503C266.264 108.344 266.752 108.264 267.285 108.264C267.653 108.264 268.019 108.307 268.384 108.393C268.749 108.48 269.082 108.622 269.383 108.821C269.685 109.017 269.927 109.283 270.109 109.621C270.295 109.96 270.388 110.382 270.388 110.889V116H268.657V114.951H268.598C268.488 115.163 268.334 115.362 268.135 115.548C267.94 115.73 267.693 115.877 267.395 115.99C267.1 116.099 266.753 116.154 266.356 116.154ZM266.823 114.832C267.184 114.832 267.497 114.76 267.763 114.618C268.028 114.472 268.232 114.28 268.374 114.041C268.52 113.803 268.593 113.542 268.593 113.261V112.361C268.536 112.407 268.44 112.45 268.304 112.49C268.172 112.53 268.023 112.565 267.857 112.594C267.691 112.624 267.527 112.651 267.365 112.674C267.202 112.697 267.062 112.717 266.942 112.734C266.674 112.77 266.433 112.83 266.221 112.913C266.009 112.996 265.842 113.112 265.719 113.261C265.597 113.406 265.535 113.595 265.535 113.827C265.535 114.159 265.656 114.409 265.898 114.578C266.14 114.747 266.448 114.832 266.823 114.832ZM273.997 105.818V116H272.197V105.818H273.997ZM280.715 112.788V108.364H282.514V116H280.769V114.643H280.69C280.518 115.07 280.234 115.42 279.84 115.692C279.449 115.964 278.966 116.099 278.393 116.099C277.893 116.099 277.45 115.988 277.066 115.766C276.684 115.541 276.386 115.214 276.171 114.787C275.955 114.356 275.848 113.836 275.848 113.226V108.364H277.647V112.947C277.647 113.431 277.78 113.816 278.045 114.101C278.31 114.386 278.658 114.528 279.089 114.528C279.354 114.528 279.611 114.464 279.86 114.335C280.108 114.205 280.312 114.013 280.471 113.758C280.634 113.499 280.715 113.176 280.715 112.788ZM286.563 116.154C286.079 116.154 285.643 116.068 285.255 115.896C284.871 115.72 284.566 115.461 284.34 115.12C284.118 114.779 284.007 114.358 284.007 113.857C284.007 113.426 284.087 113.07 284.246 112.788C284.405 112.507 284.622 112.281 284.897 112.112C285.172 111.943 285.482 111.816 285.827 111.729C286.175 111.64 286.534 111.575 286.906 111.536C287.353 111.489 287.716 111.448 287.994 111.411C288.273 111.371 288.475 111.312 288.601 111.232C288.73 111.149 288.795 111.022 288.795 110.849V110.82C288.795 110.445 288.684 110.155 288.462 109.95C288.24 109.744 287.92 109.641 287.502 109.641C287.061 109.641 286.712 109.737 286.453 109.93C286.198 110.122 286.026 110.349 285.936 110.611L284.256 110.372C284.388 109.908 284.607 109.52 284.912 109.209C285.217 108.894 285.59 108.659 286.031 108.503C286.471 108.344 286.959 108.264 287.492 108.264C287.86 108.264 288.226 108.307 288.591 108.393C288.956 108.48 289.289 108.622 289.59 108.821C289.892 109.017 290.134 109.283 290.316 109.621C290.502 109.96 290.595 110.382 290.595 110.889V116H288.864V114.951H288.805C288.695 115.163 288.541 115.362 288.342 115.548C288.147 115.73 287.9 115.877 287.602 115.99C287.307 116.099 286.96 116.154 286.563 116.154ZM287.03 114.832C287.391 114.832 287.704 114.76 287.97 114.618C288.235 114.472 288.439 114.28 288.581 114.041C288.727 113.803 288.8 113.542 288.8 113.261V112.361C288.743 112.407 288.647 112.45 288.511 112.49C288.379 112.53 288.23 112.565 288.064 112.594C287.898 112.624 287.734 112.651 287.572 112.674C287.409 112.697 287.269 112.717 287.149 112.734C286.881 112.77 286.64 112.83 286.428 112.913C286.216 112.996 286.049 113.112 285.926 113.261C285.804 113.406 285.742 113.595 285.742 113.827C285.742 114.159 285.863 114.409 286.105 114.578C286.347 114.747 286.655 114.832 287.03 114.832ZM296.217 108.364V109.756H291.828V108.364H296.217ZM292.911 106.534H294.711V113.703C294.711 113.945 294.747 114.131 294.82 114.26C294.897 114.386 294.996 114.472 295.119 114.518C295.241 114.565 295.377 114.588 295.526 114.588C295.639 114.588 295.742 114.58 295.835 114.563C295.931 114.547 296.004 114.532 296.053 114.518L296.357 115.925C296.261 115.959 296.123 115.995 295.944 116.035C295.768 116.075 295.553 116.098 295.298 116.104C294.847 116.118 294.441 116.05 294.08 115.901C293.718 115.748 293.432 115.513 293.22 115.195C293.011 114.876 292.908 114.479 292.911 114.001V106.534ZM300.972 116.149C300.226 116.149 299.579 115.985 299.033 115.657C298.486 115.329 298.061 114.87 297.76 114.28C297.462 113.69 297.312 113 297.312 112.212C297.312 111.423 297.462 110.732 297.76 110.138C298.061 109.545 298.486 109.085 299.033 108.756C299.579 108.428 300.226 108.264 300.972 108.264C301.717 108.264 302.364 108.428 302.91 108.756C303.457 109.085 303.88 109.545 304.178 110.138C304.48 110.732 304.631 111.423 304.631 112.212C304.631 113 304.48 113.69 304.178 114.28C303.88 114.87 303.457 115.329 302.91 115.657C302.364 115.985 301.717 116.149 300.972 116.149ZM300.981 114.707C301.386 114.707 301.724 114.596 301.996 114.374C302.267 114.149 302.47 113.847 302.602 113.469C302.738 113.092 302.806 112.671 302.806 112.207C302.806 111.739 302.738 111.317 302.602 110.939C302.47 110.558 302.267 110.254 301.996 110.029C301.724 109.804 301.386 109.691 300.981 109.691C300.567 109.691 300.222 109.804 299.947 110.029C299.676 110.254 299.472 110.558 299.336 110.939C299.203 111.317 299.137 111.739 299.137 112.207C299.137 112.671 299.203 113.092 299.336 113.469C299.472 113.847 299.676 114.149 299.947 114.374C300.222 114.596 300.567 114.707 300.981 114.707ZM306.158 116V108.364H307.903V109.636H307.983C308.122 109.196 308.361 108.856 308.699 108.617C309.04 108.375 309.429 108.254 309.867 108.254C309.966 108.254 310.077 108.259 310.2 108.269C310.326 108.276 310.43 108.287 310.513 108.304V109.96C310.437 109.933 310.316 109.91 310.15 109.89C309.988 109.867 309.83 109.855 309.678 109.855C309.35 109.855 309.055 109.926 308.793 110.069C308.535 110.208 308.331 110.402 308.182 110.651C308.032 110.899 307.958 111.186 307.958 111.511V116H306.158ZM317.744 110.382L316.104 110.561C316.057 110.395 315.976 110.24 315.86 110.094C315.747 109.948 315.595 109.83 315.403 109.741C315.211 109.651 314.975 109.607 314.697 109.607C314.322 109.607 314.007 109.688 313.752 109.85C313.5 110.013 313.376 110.223 313.379 110.482C313.376 110.704 313.457 110.884 313.623 111.023C313.792 111.163 314.07 111.277 314.458 111.366L315.761 111.645C316.483 111.801 317.02 112.048 317.372 112.386C317.726 112.724 317.905 113.166 317.908 113.713C317.905 114.194 317.764 114.618 317.486 114.986C317.211 115.35 316.828 115.635 316.337 115.841C315.847 116.046 315.283 116.149 314.647 116.149C313.712 116.149 312.96 115.954 312.39 115.562C311.82 115.168 311.48 114.62 311.371 113.917L313.126 113.748C313.205 114.093 313.374 114.353 313.633 114.528C313.891 114.704 314.228 114.792 314.642 114.792C315.07 114.792 315.413 114.704 315.671 114.528C315.933 114.353 316.064 114.136 316.064 113.877C316.064 113.658 315.979 113.478 315.81 113.335C315.645 113.193 315.386 113.083 315.035 113.007L313.732 112.734C313 112.581 312.458 112.324 312.107 111.963C311.755 111.598 311.581 111.138 311.585 110.581C311.581 110.11 311.709 109.703 311.967 109.358C312.229 109.01 312.592 108.741 313.056 108.553C313.524 108.36 314.062 108.264 314.672 108.264C315.567 108.264 316.271 108.455 316.785 108.836C317.302 109.217 317.622 109.732 317.744 110.382ZM323.313 111.849C323.313 110.606 323.477 109.464 323.805 108.423C324.136 107.379 324.628 106.415 325.281 105.53H326.977C326.725 105.858 326.489 106.261 326.271 106.738C326.052 107.212 325.861 107.732 325.699 108.299C325.54 108.862 325.414 109.447 325.321 110.054C325.232 110.661 325.187 111.259 325.187 111.849C325.187 112.634 325.265 113.43 325.421 114.235C325.58 115.04 325.793 115.786 326.062 116.472C326.334 117.162 326.639 117.725 326.977 118.163H325.281C324.628 117.278 324.136 116.315 323.805 115.274C323.477 114.23 323.313 113.088 323.313 111.849ZM333.242 112.788V108.364H335.042V116H333.297V114.643H333.217C333.045 115.07 332.762 115.42 332.367 115.692C331.976 115.964 331.494 116.099 330.92 116.099C330.42 116.099 329.977 115.988 329.593 115.766C329.212 115.541 328.914 115.214 328.698 114.787C328.483 114.356 328.375 113.836 328.375 113.226V108.364H330.175V112.947C330.175 113.431 330.307 113.816 330.572 114.101C330.838 114.386 331.186 114.528 331.616 114.528C331.882 114.528 332.138 114.464 332.387 114.335C332.636 114.205 332.839 114.013 332.998 113.758C333.161 113.499 333.242 113.176 333.242 112.788ZM342.928 110.382L341.287 110.561C341.241 110.395 341.16 110.24 341.044 110.094C340.931 109.948 340.779 109.83 340.586 109.741C340.394 109.651 340.159 109.607 339.88 109.607C339.506 109.607 339.191 109.688 338.936 109.85C338.684 110.013 338.56 110.223 338.563 110.482C338.56 110.704 338.641 110.884 338.807 111.023C338.976 111.163 339.254 111.277 339.642 111.366L340.944 111.645C341.667 111.801 342.204 112.048 342.555 112.386C342.91 112.724 343.089 113.166 343.092 113.713C343.089 114.194 342.948 114.618 342.669 114.986C342.394 115.35 342.012 115.635 341.521 115.841C341.031 116.046 340.467 116.149 339.831 116.149C338.896 116.149 338.144 115.954 337.574 115.562C337.004 115.168 336.664 114.62 336.554 113.917L338.309 113.748C338.389 114.093 338.558 114.353 338.816 114.528C339.075 114.704 339.411 114.792 339.826 114.792C340.253 114.792 340.596 114.704 340.855 114.528C341.117 114.353 341.248 114.136 341.248 113.877C341.248 113.658 341.163 113.478 340.994 113.335C340.828 113.193 340.57 113.083 340.218 113.007L338.916 112.734C338.183 112.581 337.642 112.324 337.29 111.963C336.939 111.598 336.765 111.138 336.768 110.581C336.765 110.11 336.892 109.703 337.151 109.358C337.413 109.01 337.776 108.741 338.24 108.553C338.707 108.36 339.246 108.264 339.856 108.264C340.75 108.264 341.455 108.455 341.968 108.836C342.486 109.217 342.805 109.732 342.928 110.382ZM347.957 116.149C347.191 116.149 346.53 115.99 345.973 115.672C345.42 115.35 344.994 114.896 344.695 114.31C344.397 113.72 344.248 113.025 344.248 112.227C344.248 111.441 344.397 110.752 344.695 110.158C344.997 109.562 345.418 109.098 345.958 108.766C346.498 108.432 347.133 108.264 347.862 108.264C348.333 108.264 348.777 108.34 349.195 108.493C349.616 108.642 349.987 108.874 350.308 109.189C350.633 109.504 350.888 109.905 351.074 110.392C351.26 110.876 351.352 111.453 351.352 112.122V112.674H345.093V111.461H349.627C349.624 111.116 349.549 110.81 349.403 110.541C349.258 110.269 349.054 110.056 348.792 109.9C348.533 109.744 348.232 109.666 347.887 109.666C347.519 109.666 347.196 109.756 346.918 109.935C346.639 110.11 346.422 110.342 346.266 110.631C346.114 110.916 346.036 111.229 346.033 111.57V112.629C346.033 113.073 346.114 113.455 346.276 113.773C346.439 114.088 346.666 114.33 346.957 114.499C347.249 114.664 347.591 114.747 347.982 114.747C348.243 114.747 348.48 114.711 348.693 114.638C348.905 114.562 349.089 114.451 349.244 114.305C349.4 114.159 349.518 113.978 349.597 113.763L351.278 113.952C351.172 114.396 350.97 114.784 350.671 115.115C350.376 115.443 349.998 115.698 349.538 115.881C349.077 116.06 348.55 116.149 347.957 116.149ZM352.875 116V108.364H354.62V109.636H354.699C354.839 109.196 355.077 108.856 355.415 108.617C355.757 108.375 356.146 108.254 356.584 108.254C356.683 108.254 356.794 108.259 356.917 108.269C357.043 108.276 357.147 108.287 357.23 108.304V109.96C357.154 109.933 357.033 109.91 356.867 109.89C356.705 109.867 356.547 109.855 356.395 109.855C356.067 109.855 355.772 109.926 355.51 110.069C355.251 110.208 355.047 110.402 354.898 110.651C354.749 110.899 354.675 111.186 354.675 111.511V116H352.875ZM364.461 110.382L362.821 110.561C362.774 110.395 362.693 110.24 362.577 110.094C362.464 109.948 362.312 109.83 362.12 109.741C361.927 109.651 361.692 109.607 361.414 109.607C361.039 109.607 360.724 109.688 360.469 109.85C360.217 110.013 360.093 110.223 360.096 110.482C360.093 110.704 360.174 110.884 360.34 111.023C360.509 111.163 360.787 111.277 361.175 111.366L362.478 111.645C363.2 111.801 363.737 112.048 364.088 112.386C364.443 112.724 364.622 113.166 364.625 113.713C364.622 114.194 364.481 114.618 364.203 114.986C363.928 115.35 363.545 115.635 363.054 115.841C362.564 116.046 362 116.149 361.364 116.149C360.429 116.149 359.677 115.954 359.107 115.562C358.537 115.168 358.197 114.62 358.088 113.917L359.843 113.748C359.922 114.093 360.091 114.353 360.35 114.528C360.608 114.704 360.945 114.792 361.359 114.792C361.786 114.792 362.13 114.704 362.388 114.528C362.65 114.353 362.781 114.136 362.781 113.877C362.781 113.658 362.696 113.478 362.527 113.335C362.362 113.193 362.103 113.083 361.752 113.007L360.449 112.734C359.717 112.581 359.175 112.324 358.823 111.963C358.472 111.598 358.298 111.138 358.301 110.581C358.298 110.11 358.426 109.703 358.684 109.358C358.946 109.01 359.309 108.741 359.773 108.553C360.24 108.36 360.779 108.264 361.389 108.264C362.284 108.264 362.988 108.455 363.502 108.836C364.019 109.217 364.339 109.732 364.461 110.382ZM369.321 111.849C369.321 113.088 369.155 114.23 368.824 115.274C368.496 116.315 368.005 117.278 367.352 118.163H365.657C365.912 117.835 366.147 117.433 366.363 116.96C366.582 116.486 366.771 115.965 366.93 115.398C367.092 114.832 367.218 114.245 367.307 113.638C367.4 113.032 367.447 112.435 367.447 111.849C367.447 111.063 367.367 110.268 367.208 109.462C367.052 108.657 366.838 107.91 366.567 107.22C366.298 106.531 365.995 105.967 365.657 105.53H367.352C368.005 106.415 368.496 107.379 368.824 108.423C369.155 109.464 369.321 110.606 369.321 111.849Z" fill="#969696"/>
<path d="M382.077 221.185C381.864 221.695 382.105 222.28 382.614 222.493L390.918 225.963C391.428 226.176 392.014 225.936 392.227 225.426C392.44 224.917 392.199 224.331 391.69 224.118L384.308 221.033L387.392 213.652C387.605 213.142 387.365 212.557 386.855 212.344C386.346 212.131 385.76 212.371 385.547 212.881L382.077 221.185ZM500.92 172.075L382.62 220.646L383.38 222.496L501.68 173.925L500.92 172.075Z" fill="#969696"/>
<path d="M123.692 166.049C123.167 166.219 122.879 166.783 123.049 167.308L125.826 175.869C125.996 176.395 126.56 176.682 127.085 176.512C127.611 176.342 127.899 175.778 127.728 175.252L125.26 167.643L132.87 165.175C133.395 165.004 133.683 164.44 133.513 163.915C133.342 163.389 132.778 163.102 132.253 163.272L123.692 166.049ZM222.454 216.109L124.455 166.109L123.546 167.891L221.546 217.891L222.454 216.109Z" fill="#969696"/>
<rect y="92" width="100" height="100" rx="8" fill="#008372"/>
<path d="M71.5 125H54.5V158.5H71.5V125Z" fill="white" stroke="#008372" stroke-linecap="square" stroke-linejoin="bevel"/>
<path d="M54.5 119L29 123.5V160L54.5 163.5V119Z" fill="white" stroke="#008372" stroke-linecap="round" stroke-linejoin="round"/>
<path d="M64.5 129H57V141H69V134.5" stroke="#008372" stroke-linecap="square"/>
<path d="M60 133.5L63 136.5L69 129.5" stroke="#008372" stroke-linecap="square"/>
<rect x="57.5" y="144.5" width="11" height="3" stroke="#008372"/>
<rect x="57.5" y="151.5" width="11" height="3" stroke="#008372"/>
<path d="M44.5 135.5H39V141.5M39 147.5V141.5M39 141.5H44.5" stroke="#008372" stroke-width="2" stroke-linecap="square"/>
<path d="M30.0043 214V203.818H36.527V205.364H31.8487V208.129H36.0795V209.675H31.8487V214H30.0043ZM40.8983 214.149C40.1525 214.149 39.5062 213.985 38.9593 213.657C38.4125 213.329 37.9882 212.87 37.6866 212.28C37.3883 211.69 37.2392 211 37.2392 210.212C37.2392 209.423 37.3883 208.732 37.6866 208.138C37.9882 207.545 38.4125 207.085 38.9593 206.756C39.5062 206.428 40.1525 206.264 40.8983 206.264C41.644 206.264 42.2903 206.428 42.8372 206.756C43.3841 207.085 43.8066 207.545 44.1049 208.138C44.4065 208.732 44.5574 209.423 44.5574 210.212C44.5574 211 44.4065 211.69 44.1049 212.28C43.8066 212.87 43.3841 213.329 42.8372 213.657C42.2903 213.985 41.644 214.149 40.8983 214.149ZM40.9082 212.707C41.3126 212.707 41.6506 212.596 41.9224 212.374C42.1942 212.149 42.3964 211.847 42.5289 211.469C42.6648 211.092 42.7328 210.671 42.7328 210.207C42.7328 209.739 42.6648 209.317 42.5289 208.939C42.3964 208.558 42.1942 208.254 41.9224 208.029C41.6506 207.804 41.3126 207.691 40.9082 207.691C40.4939 207.691 40.1492 207.804 39.8741 208.029C39.6023 208.254 39.3985 208.558 39.2626 208.939C39.13 209.317 39.0637 209.739 39.0637 210.207C39.0637 210.671 39.13 211.092 39.2626 211.469C39.3985 211.847 39.6023 212.149 39.8741 212.374C40.1492 212.596 40.4939 212.707 40.9082 212.707ZM46.0849 214V206.364H47.8299V207.636H47.9094C48.0487 207.196 48.2873 206.856 48.6254 206.617C48.9667 206.375 49.3562 206.254 49.7937 206.254C49.8931 206.254 50.0041 206.259 50.1268 206.269C50.2527 206.276 50.3571 206.287 50.44 206.304V207.96C50.3638 207.933 50.2428 207.91 50.0771 207.89C49.9147 207.867 49.7572 207.855 49.6048 207.855C49.2766 207.855 48.9817 207.926 48.7198 208.069C48.4613 208.208 48.2575 208.402 48.1083 208.651C47.9592 208.899 47.8846 209.186 47.8846 209.511V214H46.0849ZM51.6357 214V206.364H53.3558V207.661H53.4453C53.6044 207.224 53.8679 206.882 54.2358 206.637C54.6037 206.388 55.0429 206.264 55.5533 206.264C56.0703 206.264 56.5062 206.39 56.8608 206.642C57.2188 206.891 57.4706 207.23 57.6165 207.661H57.696C57.8651 207.237 58.1501 206.899 58.5511 206.647C58.9555 206.392 59.4344 206.264 59.9879 206.264C60.6906 206.264 61.264 206.486 61.7081 206.93C62.1522 207.375 62.3743 208.022 62.3743 208.874V214H60.5696V209.153C60.5696 208.679 60.4437 208.332 60.1918 208.114C59.9399 207.892 59.6316 207.781 59.267 207.781C58.8329 207.781 58.4931 207.916 58.2479 208.188C58.0059 208.457 57.8849 208.806 57.8849 209.237V214H56.12V209.078C56.12 208.684 56.0007 208.369 55.7621 208.134C55.5268 207.898 55.2185 207.781 54.8374 207.781C54.5788 207.781 54.3435 207.847 54.1314 207.979C53.9193 208.109 53.7502 208.293 53.6243 208.531C53.4983 208.767 53.4354 209.042 53.4354 209.357V214H51.6357ZM70.2356 208.382L68.595 208.561C68.5486 208.395 68.4674 208.24 68.3514 208.094C68.2387 207.948 68.0862 207.83 67.894 207.741C67.7018 207.651 67.4664 207.607 67.188 207.607C66.8135 207.607 66.4986 207.688 66.2434 207.85C65.9915 208.013 65.8672 208.223 65.8706 208.482C65.8672 208.704 65.9484 208.884 66.1142 209.023C66.2832 209.163 66.5616 209.277 66.9494 209.366L68.252 209.645C68.9745 209.801 69.5114 210.048 69.8627 210.386C70.2174 210.724 70.3964 211.166 70.3997 211.713C70.3964 212.194 70.2555 212.618 69.9771 212.986C69.702 213.35 69.3192 213.635 68.8287 213.841C68.3381 214.046 67.7747 214.149 67.1383 214.149C66.2037 214.149 65.4513 213.954 64.8812 213.562C64.3111 213.168 63.9714 212.62 63.862 211.917L65.617 211.748C65.6966 212.093 65.8656 212.353 66.1241 212.528C66.3826 212.704 66.719 212.792 67.1333 212.792C67.5609 212.792 67.9039 212.704 68.1625 212.528C68.4243 212.353 68.5552 212.136 68.5552 211.877C68.5552 211.658 68.4707 211.478 68.3017 211.335C68.1359 211.193 67.8774 211.083 67.5261 211.007L66.2235 210.734C65.4911 210.581 64.9492 210.324 64.5978 209.963C64.2465 209.598 64.0725 209.138 64.0758 208.581C64.0725 208.11 64.2001 207.703 64.4586 207.358C64.7205 207.01 65.0834 206.741 65.5474 206.553C66.0147 206.36 66.5533 206.264 67.1632 206.264C68.0581 206.264 68.7624 206.455 69.2761 206.836C69.7931 207.217 70.113 207.732 70.2356 208.382Z" fill="#008372"/>
<rect x="252.5" y="180" width="100" height="100" rx="50" fill="#277FFF"/>
<rect x="287" y="214.5" width="37" height="24" rx="2.5" stroke="white"/>
<rect x="280.5" y="232" width="20" height="13" fill="#277FFF"/>
<rect x="307" y="220.5" width="8" height="8" rx="0.5" fill="white" stroke="white"/>
<rect x="286" y="234.5" width="8" height="8" rx="0.5" fill="white" stroke="white"/>
<path d="M294 239H298L302.5 225.5H306.5" stroke="white" stroke-linecap="square" stroke-linejoin="bevel"/>
<path d="M247.004 302V291.818H250.822C251.605 291.818 252.261 291.964 252.791 292.256C253.325 292.547 253.728 292.948 253.999 293.459C254.274 293.966 254.412 294.543 254.412 295.189C254.412 295.842 254.274 296.422 253.999 296.929C253.724 297.436 253.318 297.835 252.781 298.127C252.244 298.415 251.583 298.56 250.798 298.56H248.267V297.043H250.549C251.006 297.043 251.381 296.964 251.673 296.805C251.964 296.646 252.18 296.427 252.319 296.148C252.461 295.87 252.533 295.55 252.533 295.189C252.533 294.828 252.461 294.509 252.319 294.234C252.18 293.959 251.963 293.746 251.668 293.593C251.376 293.437 251 293.359 250.539 293.359H248.849V302H247.004ZM259.156 302.149C258.41 302.149 257.764 301.985 257.217 301.657C256.67 301.329 256.246 300.87 255.944 300.28C255.646 299.69 255.497 299 255.497 298.212C255.497 297.423 255.646 296.732 255.944 296.138C256.246 295.545 256.67 295.085 257.217 294.756C257.764 294.428 258.41 294.264 259.156 294.264C259.902 294.264 260.548 294.428 261.095 294.756C261.642 295.085 262.064 295.545 262.363 296.138C262.664 296.732 262.815 297.423 262.815 298.212C262.815 299 262.664 299.69 262.363 300.28C262.064 300.87 261.642 301.329 261.095 301.657C260.548 301.985 259.902 302.149 259.156 302.149ZM259.166 300.707C259.57 300.707 259.908 300.596 260.18 300.374C260.452 300.149 260.654 299.847 260.787 299.469C260.923 299.092 260.991 298.671 260.991 298.207C260.991 297.739 260.923 297.317 260.787 296.939C260.654 296.558 260.452 296.254 260.18 296.029C259.908 295.804 259.57 295.691 259.166 295.691C258.752 295.691 258.407 295.804 258.132 296.029C257.86 296.254 257.656 296.558 257.52 296.939C257.388 297.317 257.322 297.739 257.322 298.207C257.322 298.671 257.388 299.092 257.52 299.469C257.656 299.847 257.86 300.149 258.132 300.374C258.407 300.596 258.752 300.707 259.166 300.707ZM265.7 302L263.542 294.364H265.377L266.719 299.733H266.789L268.161 294.364H269.975L271.348 299.703H271.422L272.745 294.364H274.584L272.422 302H270.547L269.115 296.839H269.011L267.579 302H265.7ZM279.003 302.149C278.237 302.149 277.576 301.99 277.019 301.672C276.465 301.35 276.04 300.896 275.741 300.31C275.443 299.72 275.294 299.025 275.294 298.227C275.294 297.441 275.443 296.752 275.741 296.158C276.043 295.562 276.464 295.098 277.004 294.766C277.544 294.432 278.179 294.264 278.908 294.264C279.379 294.264 279.823 294.34 280.241 294.493C280.662 294.642 281.033 294.874 281.354 295.189C281.679 295.504 281.934 295.905 282.12 296.392C282.305 296.876 282.398 297.453 282.398 298.122V298.674H276.139V297.461H280.673C280.67 297.116 280.595 296.81 280.449 296.541C280.304 296.269 280.1 296.056 279.838 295.9C279.579 295.744 279.278 295.666 278.933 295.666C278.565 295.666 278.242 295.756 277.964 295.935C277.685 296.11 277.468 296.342 277.312 296.631C277.16 296.916 277.082 297.229 277.079 297.57V298.629C277.079 299.073 277.16 299.455 277.322 299.773C277.485 300.088 277.712 300.33 278.003 300.499C278.295 300.664 278.636 300.747 279.028 300.747C279.289 300.747 279.526 300.711 279.738 300.638C279.951 300.562 280.135 300.451 280.29 300.305C280.446 300.159 280.564 299.978 280.643 299.763L282.324 299.952C282.218 300.396 282.015 300.784 281.717 301.115C281.422 301.443 281.044 301.698 280.584 301.881C280.123 302.06 279.596 302.149 279.003 302.149ZM283.921 302V294.364H285.666V295.636H285.745C285.885 295.196 286.123 294.856 286.461 294.617C286.803 294.375 287.192 294.254 287.63 294.254C287.729 294.254 287.84 294.259 287.963 294.269C288.089 294.276 288.193 294.287 288.276 294.304V295.96C288.2 295.933 288.079 295.91 287.913 295.89C287.751 295.867 287.593 295.855 287.441 295.855C287.113 295.855 286.818 295.926 286.556 296.069C286.297 296.208 286.093 296.402 285.944 296.651C285.795 296.899 285.721 297.186 285.721 297.511V302H283.921ZM294.331 302H292.363L295.947 291.818H298.224L301.814 302H299.845L297.125 293.906H297.046L294.331 302ZM294.396 298.008H299.765V299.489H294.396V298.008ZM307.942 298.788V294.364H309.742V302H307.997V300.643H307.917C307.745 301.07 307.462 301.42 307.067 301.692C306.676 301.964 306.194 302.099 305.621 302.099C305.12 302.099 304.678 301.988 304.293 301.766C303.912 301.541 303.614 301.214 303.398 300.787C303.183 300.356 303.075 299.836 303.075 299.226V294.364H304.875V298.947C304.875 299.431 305.007 299.816 305.273 300.101C305.538 300.386 305.886 300.528 306.317 300.528C306.582 300.528 306.839 300.464 307.087 300.335C307.336 300.205 307.54 300.013 307.699 299.758C307.861 299.499 307.942 299.176 307.942 298.788ZM315.406 294.364V295.756H311.016V294.364H315.406ZM312.1 292.534H313.9V299.703C313.9 299.945 313.936 300.131 314.009 300.26C314.085 300.386 314.185 300.472 314.307 300.518C314.43 300.565 314.566 300.588 314.715 300.588C314.828 300.588 314.93 300.58 315.023 300.563C315.119 300.547 315.192 300.532 315.242 300.518L315.545 301.925C315.449 301.959 315.311 301.995 315.132 302.035C314.957 302.075 314.741 302.098 314.486 302.104C314.035 302.118 313.629 302.05 313.268 301.901C312.907 301.748 312.62 301.513 312.408 301.195C312.199 300.876 312.096 300.479 312.1 300.001V292.534ZM320.16 302.149C319.414 302.149 318.768 301.985 318.221 301.657C317.674 301.329 317.25 300.87 316.948 300.28C316.65 299.69 316.501 299 316.501 298.212C316.501 297.423 316.65 296.732 316.948 296.138C317.25 295.545 317.674 295.085 318.221 294.756C318.768 294.428 319.414 294.264 320.16 294.264C320.906 294.264 321.552 294.428 322.099 294.756C322.646 295.085 323.068 295.545 323.367 296.138C323.668 296.732 323.819 297.423 323.819 298.212C323.819 299 323.668 299.69 323.367 300.28C323.068 300.87 322.646 301.329 322.099 301.657C321.552 301.985 320.906 302.149 320.16 302.149ZM320.17 300.707C320.574 300.707 320.912 300.596 321.184 300.374C321.456 300.149 321.658 299.847 321.791 299.469C321.927 299.092 321.994 298.671 321.994 298.207C321.994 297.739 321.927 297.317 321.791 296.939C321.658 296.558 321.456 296.254 321.184 296.029C320.912 295.804 320.574 295.691 320.17 295.691C319.756 295.691 319.411 295.804 319.136 296.029C318.864 296.254 318.66 296.558 318.524 296.939C318.392 297.317 318.325 297.739 318.325 298.207C318.325 298.671 318.392 299.092 318.524 299.469C318.66 299.847 318.864 300.149 319.136 300.374C319.411 300.596 319.756 300.707 320.17 300.707ZM325.347 302V294.364H327.067V295.661H327.156C327.315 295.224 327.579 294.882 327.947 294.637C328.315 294.388 328.754 294.264 329.264 294.264C329.781 294.264 330.217 294.39 330.572 294.642C330.93 294.891 331.182 295.23 331.327 295.661H331.407C331.576 295.237 331.861 294.899 332.262 294.647C332.666 294.392 333.145 294.264 333.699 294.264C334.402 294.264 334.975 294.486 335.419 294.93C335.863 295.375 336.085 296.022 336.085 296.874V302H334.281V297.153C334.281 296.679 334.155 296.332 333.903 296.114C333.651 295.892 333.343 295.781 332.978 295.781C332.544 295.781 332.204 295.916 331.959 296.188C331.717 296.457 331.596 296.806 331.596 297.237V302H329.831V297.078C329.831 296.684 329.712 296.369 329.473 296.134C329.238 295.898 328.929 295.781 328.548 295.781C328.29 295.781 328.054 295.847 327.842 295.979C327.63 296.109 327.461 296.293 327.335 296.531C327.209 296.767 327.146 297.042 327.146 297.357V302H325.347ZM340.108 302.154C339.625 302.154 339.189 302.068 338.801 301.896C338.416 301.72 338.112 301.461 337.886 301.12C337.664 300.779 337.553 300.358 337.553 299.857C337.553 299.426 337.633 299.07 337.792 298.788C337.951 298.507 338.168 298.281 338.443 298.112C338.718 297.943 339.028 297.816 339.373 297.729C339.721 297.64 340.08 297.575 340.452 297.536C340.899 297.489 341.262 297.448 341.54 297.411C341.819 297.371 342.021 297.312 342.147 297.232C342.276 297.149 342.341 297.022 342.341 296.849V296.82C342.341 296.445 342.23 296.155 342.008 295.95C341.786 295.744 341.466 295.641 341.048 295.641C340.607 295.641 340.258 295.737 339.999 295.93C339.744 296.122 339.572 296.349 339.482 296.611L337.802 296.372C337.934 295.908 338.153 295.52 338.458 295.209C338.763 294.894 339.136 294.659 339.577 294.503C340.017 294.344 340.505 294.264 341.038 294.264C341.406 294.264 341.772 294.307 342.137 294.393C342.501 294.48 342.835 294.622 343.136 294.821C343.438 295.017 343.68 295.283 343.862 295.621C344.048 295.96 344.14 296.382 344.14 296.889V302H342.41V300.951H342.351C342.241 301.163 342.087 301.362 341.888 301.548C341.693 301.73 341.446 301.877 341.148 301.99C340.853 302.099 340.506 302.154 340.108 302.154ZM340.576 300.832C340.937 300.832 341.25 300.76 341.515 300.618C341.781 300.472 341.984 300.28 342.127 300.041C342.273 299.803 342.346 299.542 342.346 299.261V298.361C342.289 298.407 342.193 298.45 342.057 298.49C341.925 298.53 341.776 298.565 341.61 298.594C341.444 298.624 341.28 298.651 341.118 298.674C340.955 298.697 340.814 298.717 340.695 298.734C340.427 298.77 340.186 298.83 339.974 298.913C339.762 298.996 339.595 299.112 339.472 299.261C339.349 299.406 339.288 299.595 339.288 299.827C339.288 300.159 339.409 300.409 339.651 300.578C339.893 300.747 340.201 300.832 340.576 300.832ZM349.763 294.364V295.756H345.373V294.364H349.763ZM346.457 292.534H348.257V299.703C348.257 299.945 348.293 300.131 348.366 300.26C348.443 300.386 348.542 300.472 348.665 300.518C348.787 300.565 348.923 300.588 349.072 300.588C349.185 300.588 349.288 300.58 349.381 300.563C349.477 300.547 349.55 300.532 349.599 300.518L349.903 301.925C349.806 301.959 349.669 301.995 349.49 302.035C349.314 302.075 349.099 302.098 348.844 302.104C348.393 302.118 347.987 302.05 347.626 301.901C347.264 301.748 346.978 301.513 346.765 301.195C346.557 300.876 346.454 300.479 346.457 300.001V292.534ZM354.567 302.149C353.801 302.149 353.14 301.99 352.583 301.672C352.03 301.35 351.604 300.896 351.306 300.31C351.007 299.72 350.858 299.025 350.858 298.227C350.858 297.441 351.007 296.752 351.306 296.158C351.607 295.562 352.028 295.098 352.569 294.766C353.109 294.432 353.743 294.264 354.473 294.264C354.943 294.264 355.387 294.34 355.805 294.493C356.226 294.642 356.597 294.874 356.919 295.189C357.243 295.504 357.499 295.905 357.684 296.392C357.87 296.876 357.963 297.453 357.963 298.122V298.674H351.703V297.461H356.238C356.234 297.116 356.16 296.81 356.014 296.541C355.868 296.269 355.664 296.056 355.402 295.9C355.144 295.744 354.842 295.666 354.498 295.666C354.13 295.666 353.806 295.756 353.528 295.935C353.25 296.11 353.033 296.342 352.877 296.631C352.724 296.916 352.646 297.229 352.643 297.57V298.629C352.643 299.073 352.724 299.455 352.887 299.773C353.049 300.088 353.276 300.33 353.568 300.499C353.859 300.664 354.201 300.747 354.592 300.747C354.854 300.747 355.091 300.711 355.303 300.638C355.515 300.562 355.699 300.451 355.855 300.305C356.011 300.159 356.128 299.978 356.208 299.763L357.888 299.952C357.782 300.396 357.58 300.784 357.282 301.115C356.987 301.443 356.609 301.698 356.148 301.881C355.687 302.06 355.16 302.149 354.567 302.149Z" fill="#277FFF"/>
<rect x="520" y="88" width="100" height="100" rx="8" fill="#217346"/>
<path d="M574 156V121H593V156H574Z" fill="white" stroke="white" stroke-linecap="round" stroke-linejoin="round"/>
<path d="M574 151V125H588V151H574Z" fill="#217346" stroke="#217346" stroke-linecap="round" stroke-linejoin="round"/>
<path d="M572.5 116L547 120.5V157L572.5 160.5V116Z" fill="white" stroke="#217346" stroke-linecap="round" stroke-linejoin="round"/>
<path d="M553.5 130L563 146.5" stroke="#217346" stroke-width="2" stroke-linecap="square" stroke-linejoin="bevel"/>
<path d="M553 147L563.5 130" stroke="#217346" stroke-width="2" stroke-linecap="square" stroke-linejoin="bevel"/>
<path d="M574 131.5H588" stroke="white" stroke-linecap="square" stroke-linejoin="bevel"/>
<path d="M578.5 125V151" stroke="white" stroke-linecap="square" stroke-linejoin="bevel"/>
<path d="M574 145.5H588" stroke="white" stroke-linecap="square" stroke-linejoin="bevel"/>
<path d="M574 138.5H588" stroke="white" stroke-linecap="square" stroke-linejoin="bevel"/>
<path d="M552.504 210V199.818H559.126V201.364H554.349V204.129H558.783V205.675H554.349V208.454H559.166V210H552.504ZM562.4 202.364L563.941 205.183L565.507 202.364H567.412L565.11 206.182L567.451 210H565.557L563.941 207.251L562.341 210H560.431L562.758 206.182L560.491 202.364H562.4ZM571.847 210.149C571.085 210.149 570.431 209.982 569.884 209.647C569.34 209.312 568.921 208.85 568.626 208.26C568.334 207.667 568.188 206.984 568.188 206.212C568.188 205.436 568.338 204.752 568.636 204.158C568.934 203.562 569.355 203.098 569.899 202.766C570.445 202.432 571.092 202.264 571.838 202.264C572.457 202.264 573.006 202.379 573.483 202.607C573.964 202.833 574.347 203.152 574.632 203.567C574.917 203.978 575.079 204.458 575.119 205.009H573.399C573.329 204.641 573.163 204.334 572.901 204.089C572.643 203.84 572.297 203.716 571.862 203.716C571.494 203.716 571.171 203.815 570.893 204.014C570.615 204.21 570.397 204.491 570.242 204.859C570.089 205.227 570.013 205.668 570.013 206.182C570.013 206.702 570.089 207.15 570.242 207.524C570.394 207.895 570.608 208.182 570.883 208.384C571.161 208.583 571.488 208.683 571.862 208.683C572.128 208.683 572.365 208.633 572.573 208.533C572.785 208.431 572.963 208.283 573.105 208.091C573.248 207.899 573.346 207.665 573.399 207.39H575.119C575.076 207.93 574.917 208.409 574.642 208.827C574.366 209.241 573.992 209.566 573.518 209.801C573.044 210.033 572.487 210.149 571.847 210.149ZM579.977 210.149C579.212 210.149 578.55 209.99 577.994 209.672C577.44 209.35 577.014 208.896 576.716 208.31C576.418 207.72 576.268 207.025 576.268 206.227C576.268 205.441 576.418 204.752 576.716 204.158C577.018 203.562 577.438 203.098 577.979 202.766C578.519 202.432 579.154 202.264 579.883 202.264C580.353 202.264 580.798 202.34 581.215 202.493C581.636 202.642 582.007 202.874 582.329 203.189C582.654 203.504 582.909 203.905 583.094 204.392C583.28 204.876 583.373 205.453 583.373 206.122V206.674H577.114V205.461H581.648C581.644 205.116 581.57 204.81 581.424 204.541C581.278 204.269 581.074 204.056 580.812 203.9C580.554 203.744 580.252 203.666 579.908 203.666C579.54 203.666 579.217 203.756 578.938 203.935C578.66 204.11 578.443 204.342 578.287 204.631C578.134 204.916 578.057 205.229 578.053 205.57V206.629C578.053 207.073 578.134 207.455 578.297 207.773C578.459 208.088 578.686 208.33 578.978 208.499C579.27 208.664 579.611 208.747 580.002 208.747C580.264 208.747 580.501 208.711 580.713 208.638C580.925 208.562 581.109 208.451 581.265 208.305C581.421 208.159 581.538 207.978 581.618 207.763L583.298 207.952C583.192 208.396 582.99 208.784 582.692 209.115C582.397 209.443 582.019 209.698 581.558 209.881C581.098 210.06 580.571 210.149 579.977 210.149ZM586.695 199.818V210H584.895V199.818H586.695Z" fill="#008372"/>
</svg>
