<svg width="345" height="247" viewBox="0 0 345 247" fill="none" xmlns="http://www.w3.org/2000/svg">
<circle cx="23.5" cy="21.5" r="11.5" stroke="black" stroke-width="2"/>
<circle cx="51.5" cy="21.5" r="11.5" stroke="black" stroke-width="2"/>
<circle cx="80.5" cy="21.5" r="11.5" stroke="black" stroke-width="2"/>
<mask id="path-4-inside-1_853_3" fill="white">
<rect x="170" y="66" width="147" height="51" rx="1"/>
</mask>
<rect x="170" y="66" width="147" height="51" rx="1" stroke="black" stroke-width="4" mask="url(#path-4-inside-1_853_3)"/>
<mask id="path-5-inside-2_853_3" fill="white">
<rect x="170" y="140" width="42" height="41" rx="1"/>
</mask>
<rect x="170" y="140" width="42" height="41" rx="1" fill="#B4C2CF" fill-opacity="0.56" stroke="black" stroke-width="4" mask="url(#path-5-inside-2_853_3)"/>
<mask id="path-6-inside-3_853_3" fill="white">
<rect x="26" y="140" width="71" height="12" rx="1"/>
</mask>
<rect x="26" y="140" width="71" height="12" rx="1" stroke="black" stroke-width="4" mask="url(#path-6-inside-3_853_3)"/>
<line x1="170.698" y1="140.284" x2="211.698" y2="180.284" stroke="black" stroke-width="2"/>
<line x1="170.302" y1="180.283" x2="211.304" y2="140.285" stroke="black" stroke-width="2"/>
<mask id="path-9-inside-4_853_3" fill="white">
<rect x="223" y="140" width="42" height="41" rx="1"/>
</mask>
<rect x="223" y="140" width="42" height="41" rx="1" stroke="black" stroke-width="4" mask="url(#path-9-inside-4_853_3)"/>
<line x1="223.698" y1="140.284" x2="264.698" y2="180.284" stroke="black" stroke-width="2"/>
<line x1="223.302" y1="180.283" x2="264.304" y2="140.285" stroke="black" stroke-width="2"/>
<mask id="path-12-inside-5_853_3" fill="white">
<rect x="223" y="140" width="42" height="41" rx="1"/>
</mask>
<rect x="223" y="140" width="42" height="41" rx="1" fill="#D5DDE4" stroke="black" stroke-width="4" mask="url(#path-12-inside-5_853_3)"/>
<line x1="223.698" y1="140.284" x2="264.698" y2="180.284" stroke="black" stroke-width="2"/>
<line x1="223.302" y1="180.283" x2="264.304" y2="140.285" stroke="black" stroke-width="2"/>
<mask id="path-15-inside-6_853_3" fill="white">
<rect x="276" y="140" width="42" height="41" rx="1"/>
</mask>
<rect x="276" y="140" width="42" height="41" rx="1" fill="#D5DDE4" stroke="black" stroke-width="4" mask="url(#path-15-inside-6_853_3)"/>
<line x1="276.698" y1="140.284" x2="317.698" y2="180.284" stroke="black" stroke-width="2"/>
<line x1="276.302" y1="180.283" x2="317.304" y2="140.285" stroke="black" stroke-width="2"/>
<path d="M170 197H212" stroke="black" stroke-width="2" stroke-linecap="round"/>
<path d="M41 162H153" stroke="black" stroke-width="2" stroke-linecap="round"/>
<path d="M41 197H142" stroke="black" stroke-width="2" stroke-linecap="round"/>
<path d="M41 174H142" stroke="black" stroke-width="2" stroke-linecap="round"/>
<path d="M41 174H142" stroke="black" stroke-width="2" stroke-linecap="round"/>
<path d="M42 186H66" stroke="black" stroke-width="2" stroke-linecap="round"/>
<path d="M75 186H148" stroke="black" stroke-width="2" stroke-linecap="round"/>
<path d="M175 208H208" stroke="black" stroke-width="2" stroke-linecap="round"/>
<path d="M227 208H260" stroke="black" stroke-width="2" stroke-linecap="round"/>
<path d="M280 208H313" stroke="black" stroke-width="2" stroke-linecap="round"/>
<path d="M223 197H265" stroke="black" stroke-width="2" stroke-linecap="round"/>
<path d="M275 197H317" stroke="black" stroke-width="2" stroke-linecap="round"/>
<line x1="171.32" y1="66.0526" x2="316.32" y2="115.053" stroke="black" stroke-width="2"/>
<line x1="170.68" y1="115.053" x2="315.68" y2="66.0526" stroke="black" stroke-width="2"/>
<mask id="path-32-outside-7_853_3" maskUnits="userSpaceOnUse" x="26" y="72" width="41" height="46" fill="black">
<rect fill="white" x="26" y="72" width="41" height="46"/>
<path d="M33.0739 117H27.5341L43.5568 73.3636H49.0114L65.0341 117H59.4943L46.4545 80.267H46.1136L33.0739 117ZM35.1193 99.9545H57.4489V104.642H35.1193V99.9545Z"/>
</mask>
<path d="M33.0739 117H27.5341L43.5568 73.3636H49.0114L65.0341 117H59.4943L46.4545 80.267H46.1136L33.0739 117ZM35.1193 99.9545H57.4489V104.642H35.1193V99.9545Z" fill="#D5DDE4"/>
<path d="M33.0739 117V118H33.78L34.0162 117.335L33.0739 117ZM27.5341 117L26.5954 116.655L26.1016 118H27.5341V117ZM43.5568 73.3636V72.3636H42.8587L42.6181 73.0189L43.5568 73.3636ZM49.0114 73.3636L49.9501 73.0189L49.7095 72.3636H49.0114V73.3636ZM65.0341 117V118H66.4666L65.9728 116.655L65.0341 117ZM59.4943 117L58.5519 117.335L58.7882 118H59.4943V117ZM46.4545 80.267L47.3969 79.9325L47.1607 79.267H46.4545V80.267ZM46.1136 80.267V79.267H45.4075L45.1713 79.9325L46.1136 80.267ZM35.1193 99.9545V98.9545H34.1193V99.9545H35.1193ZM57.4489 99.9545H58.4489V98.9545H57.4489V99.9545ZM57.4489 104.642V105.642H58.4489V104.642H57.4489ZM35.1193 104.642H34.1193V105.642H35.1193V104.642ZM33.0739 116H27.5341V118H33.0739V116ZM28.4728 117.345L44.4955 73.7083L42.6181 73.0189L26.5954 116.655L28.4728 117.345ZM43.5568 74.3636H49.0114V72.3636H43.5568V74.3636ZM48.0726 73.7083L64.0954 117.345L65.9728 116.655L49.9501 73.0189L48.0726 73.7083ZM65.0341 116H59.4943V118H65.0341V116ZM60.4367 116.665L47.3969 79.9325L45.5122 80.6016L58.5519 117.335L60.4367 116.665ZM46.4545 79.267H46.1136V81.267H46.4545V79.267ZM45.1713 79.9325L32.1315 116.665L34.0162 117.335L47.056 80.6016L45.1713 79.9325ZM35.1193 100.955H57.4489V98.9545H35.1193V100.955ZM56.4489 99.9545V104.642H58.4489V99.9545H56.4489ZM57.4489 103.642H35.1193V105.642H57.4489V103.642ZM36.1193 104.642V99.9545H34.1193V104.642H36.1193Z" fill="black" mask="url(#path-32-outside-7_853_3)"/>
<mask id="path-34-outside-8_853_3" maskUnits="userSpaceOnUse" x="68" y="81" width="29" height="37" fill="black">
<rect fill="white" x="68" y="81" width="29" height="37"/>
<path d="M80.233 116.767C78.1591 116.767 76.277 116.376 74.5866 115.595C72.8963 114.8 71.554 113.656 70.5597 112.165C69.5653 110.659 69.0682 108.841 69.0682 106.71C69.0682 104.835 69.4375 103.315 70.1761 102.151C70.9148 100.972 71.902 100.048 73.1378 99.3807C74.3736 98.7131 75.7372 98.2159 77.2287 97.8892C78.7344 97.5483 80.2472 97.2784 81.767 97.0795C83.7557 96.8239 85.3679 96.6321 86.6037 96.5043C87.8537 96.3622 88.7628 96.1278 89.331 95.8011C89.9134 95.4744 90.2045 94.9062 90.2045 94.0966V93.9261C90.2045 91.8239 89.6293 90.1903 88.4787 89.0256C87.3423 87.8608 85.6165 87.2784 83.3011 87.2784C80.9006 87.2784 79.0185 87.804 77.6548 88.8551C76.2912 89.9062 75.3324 91.0284 74.7784 92.2216L70.0057 90.517C70.858 88.5284 71.9943 86.9801 73.4148 85.8722C74.8494 84.75 76.4119 83.9687 78.1023 83.5284C79.8068 83.0739 81.483 82.8466 83.1307 82.8466C84.1818 82.8466 85.3892 82.9744 86.7528 83.2301C88.1307 83.4716 89.4588 83.9759 90.7372 84.7429C92.0298 85.5099 93.1023 86.6676 93.9545 88.2159C94.8068 89.7642 95.233 91.8381 95.233 94.4375V116H90.2045V111.568H89.9489C89.608 112.278 89.0398 113.038 88.2443 113.848C87.4489 114.658 86.3906 115.347 85.0696 115.915C83.7486 116.483 82.1364 116.767 80.233 116.767ZM81 112.25C82.9886 112.25 84.6648 111.859 86.0284 111.078C87.4063 110.297 88.4432 109.288 89.1392 108.053C89.8494 106.817 90.2045 105.517 90.2045 104.153V99.5511C89.9915 99.8068 89.5227 100.041 88.7983 100.254C88.0881 100.453 87.2642 100.631 86.3267 100.787C85.4034 100.929 84.5014 101.057 83.6207 101.17C82.7543 101.27 82.0511 101.355 81.5114 101.426C80.2045 101.597 78.983 101.874 77.8466 102.257C76.7244 102.626 75.8153 103.187 75.1193 103.94C74.4375 104.679 74.0966 105.687 74.0966 106.966C74.0966 108.713 74.7429 110.034 76.0355 110.929C77.3423 111.81 78.9972 112.25 81 112.25Z"/>
</mask>
<path d="M80.233 116.767C78.1591 116.767 76.277 116.376 74.5866 115.595C72.8963 114.8 71.554 113.656 70.5597 112.165C69.5653 110.659 69.0682 108.841 69.0682 106.71C69.0682 104.835 69.4375 103.315 70.1761 102.151C70.9148 100.972 71.902 100.048 73.1378 99.3807C74.3736 98.7131 75.7372 98.2159 77.2287 97.8892C78.7344 97.5483 80.2472 97.2784 81.767 97.0795C83.7557 96.8239 85.3679 96.6321 86.6037 96.5043C87.8537 96.3622 88.7628 96.1278 89.331 95.8011C89.9134 95.4744 90.2045 94.9062 90.2045 94.0966V93.9261C90.2045 91.8239 89.6293 90.1903 88.4787 89.0256C87.3423 87.8608 85.6165 87.2784 83.3011 87.2784C80.9006 87.2784 79.0185 87.804 77.6548 88.8551C76.2912 89.9062 75.3324 91.0284 74.7784 92.2216L70.0057 90.517C70.858 88.5284 71.9943 86.9801 73.4148 85.8722C74.8494 84.75 76.4119 83.9687 78.1023 83.5284C79.8068 83.0739 81.483 82.8466 83.1307 82.8466C84.1818 82.8466 85.3892 82.9744 86.7528 83.2301C88.1307 83.4716 89.4588 83.9759 90.7372 84.7429C92.0298 85.5099 93.1023 86.6676 93.9545 88.2159C94.8068 89.7642 95.233 91.8381 95.233 94.4375V116H90.2045V111.568H89.9489C89.608 112.278 89.0398 113.038 88.2443 113.848C87.4489 114.658 86.3906 115.347 85.0696 115.915C83.7486 116.483 82.1364 116.767 80.233 116.767ZM81 112.25C82.9886 112.25 84.6648 111.859 86.0284 111.078C87.4063 110.297 88.4432 109.288 89.1392 108.053C89.8494 106.817 90.2045 105.517 90.2045 104.153V99.5511C89.9915 99.8068 89.5227 100.041 88.7983 100.254C88.0881 100.453 87.2642 100.631 86.3267 100.787C85.4034 100.929 84.5014 101.057 83.6207 101.17C82.7543 101.27 82.0511 101.355 81.5114 101.426C80.2045 101.597 78.983 101.874 77.8466 102.257C76.7244 102.626 75.8153 103.187 75.1193 103.94C74.4375 104.679 74.0966 105.687 74.0966 106.966C74.0966 108.713 74.7429 110.034 76.0355 110.929C77.3423 111.81 78.9972 112.25 81 112.25Z" fill="#D5DDE4"/>
<path d="M74.5866 115.595L74.1608 116.5L74.1671 116.503L74.5866 115.595ZM70.5597 112.165L69.7252 112.716L69.7276 112.719L70.5597 112.165ZM70.1761 102.151L71.0207 102.686L71.0236 102.681L70.1761 102.151ZM73.1378 99.3807L73.6131 100.261L73.1378 99.3807ZM77.2287 97.8892L77.4427 98.8661L77.4495 98.8645L77.2287 97.8892ZM81.767 97.0795L81.6395 96.0877L81.6373 96.088L81.767 97.0795ZM86.6037 96.5043L86.7066 97.499L86.7166 97.4979L86.6037 96.5043ZM89.331 95.8011L88.8417 94.9289L88.8325 94.9342L89.331 95.8011ZM88.4787 89.0256L87.7629 89.7239L87.7673 89.7283L88.4787 89.0256ZM77.6548 88.8551L78.2653 89.6471L77.6548 88.8551ZM74.7784 92.2216L74.4421 93.1633L75.3012 93.4702L75.6854 92.6427L74.7784 92.2216ZM70.0057 90.517L69.0865 90.1231L68.6675 91.101L69.6693 91.4588L70.0057 90.517ZM73.4148 85.8722L74.0298 86.6607L74.0309 86.6598L73.4148 85.8722ZM78.1023 83.5284L78.3544 84.4961L78.3599 84.4946L78.1023 83.5284ZM86.7528 83.2301L86.5685 84.2131L86.5802 84.2151L86.7528 83.2301ZM90.7372 84.7429L90.2227 85.6004L90.2269 85.6029L90.7372 84.7429ZM93.9545 88.2159L93.0785 88.6981V88.6981L93.9545 88.2159ZM95.233 116V117H96.233V116H95.233ZM90.2045 116H89.2045V117H90.2045V116ZM90.2045 111.568H91.2045V110.568H90.2045V111.568ZM89.9489 111.568V110.568H89.3196L89.0473 111.135L89.9489 111.568ZM88.2443 113.848L88.9577 114.549H88.9577L88.2443 113.848ZM85.0696 115.915L84.6745 114.996L85.0696 115.915ZM86.0284 111.078L85.5352 110.208L85.5313 110.21L86.0284 111.078ZM89.1392 108.053L88.2722 107.554L88.2679 107.562L89.1392 108.053ZM90.2045 99.5511H91.2045V96.7891L89.4363 98.911L90.2045 99.5511ZM88.7983 100.254L89.0679 101.217L89.0805 101.214L88.7983 100.254ZM86.3267 100.787L86.4788 101.775L86.4911 101.773L86.3267 100.787ZM83.6207 101.17L83.7348 102.164L83.7487 102.162L83.6207 101.17ZM81.5114 101.426L81.6407 102.418L81.6418 102.418L81.5114 101.426ZM77.8466 102.257L78.1592 103.207L78.1664 103.205L77.8466 102.257ZM75.1193 103.94L74.385 103.261L74.3845 103.262L75.1193 103.94ZM76.0355 110.929L75.4663 111.751L75.4767 111.758L76.0355 110.929ZM80.233 115.767C78.2874 115.767 76.5508 115.401 75.0062 114.687L74.1671 116.503C76.0032 117.352 78.0308 117.767 80.233 117.767V115.767ZM75.0124 114.69C73.4796 113.969 72.2806 112.943 71.3917 111.61L69.7276 112.719C70.8273 114.369 72.313 115.63 74.1609 116.5L75.0124 114.69ZM71.3941 111.614C70.5261 110.299 70.0682 108.681 70.0682 106.71H68.0682C68.0682 109.001 68.6046 111.019 69.7252 112.716L71.3941 111.614ZM70.0682 106.71C70.0682 104.959 70.4139 103.643 71.0206 102.686L69.3316 101.615C68.4611 102.988 68.0682 104.712 68.0682 106.71H70.0682ZM71.0236 102.681C71.6695 101.65 72.5279 100.847 73.6131 100.261L72.6625 98.5009C71.2761 99.2498 70.1601 100.293 69.3287 101.62L71.0236 102.681ZM73.6131 100.261C74.7599 99.6409 76.0345 99.1745 77.4427 98.866L77.0147 96.9124C75.4399 97.2573 73.9872 97.7852 72.6625 98.5009L73.6131 100.261ZM77.4495 98.8645C78.9253 98.5304 80.4077 98.2659 81.8968 98.0711L81.6373 96.088C80.0866 96.2909 78.5434 96.5662 77.0079 96.9139L77.4495 98.8645ZM81.8946 98.0714C83.8793 97.8162 85.4824 97.6256 86.7066 97.499L86.5008 95.5096C85.2534 95.6386 83.6321 95.8315 81.6395 96.0877L81.8946 98.0714ZM86.7166 97.4979C88.0005 97.352 89.078 97.1001 89.8294 96.668L88.8325 94.9342C88.4476 95.1555 87.7069 95.3725 86.4908 95.5107L86.7166 97.4979ZM89.8202 96.6733C90.7901 96.1292 91.2045 95.177 91.2045 94.0966H89.2045C89.2045 94.6355 89.0366 94.8197 88.8417 94.929L89.8202 96.6733ZM91.2045 94.0966V93.9261H89.2045V94.0966H91.2045ZM91.2045 93.9261C91.2045 91.6388 90.574 89.7238 89.1901 88.3228L87.7673 89.7283C88.6845 90.6569 89.2045 92.0089 89.2045 93.9261H91.2045ZM89.1945 88.3272C87.8023 86.9002 85.7706 86.2784 83.3011 86.2784V88.2784C85.4624 88.2784 86.8824 88.8214 87.7629 89.7239L89.1945 88.3272ZM83.3011 86.2784C80.7651 86.2784 78.6403 86.8329 77.0443 88.0631L78.2653 89.6471C79.3967 88.775 81.0361 88.2784 83.3011 88.2784V86.2784ZM77.0443 88.0631C75.5914 89.1831 74.5106 90.4237 73.8714 91.8005L75.6854 92.6427C76.1542 91.6331 76.991 90.6294 78.2653 89.6471L77.0443 88.0631ZM75.1147 91.2798L70.342 89.5753L69.6693 91.4588L74.4421 93.1633L75.1147 91.2798ZM70.9248 90.911C71.724 89.0463 72.7667 87.6459 74.0298 86.6607L72.7997 85.0837C71.2219 86.3144 69.992 88.0105 69.0865 90.1231L70.9248 90.911ZM74.0309 86.6598C75.3625 85.6183 76.8021 84.9005 78.3544 84.4961L77.8502 82.5607C76.0218 83.037 74.3364 83.8817 72.7987 85.0845L74.0309 86.6598ZM78.3599 84.4946C79.9863 84.0609 81.5759 83.8466 83.1307 83.8466V81.8466C81.3901 81.8466 79.6273 82.0868 77.8446 82.5622L78.3599 84.4946ZM83.1307 83.8466C84.104 83.8466 85.2477 83.9653 86.5686 84.213L86.9371 82.2472C85.5308 81.9835 84.2596 81.8466 83.1307 81.8466V83.8466ZM86.5802 84.2151C87.8295 84.434 89.0425 84.8923 90.2227 85.6004L91.2517 83.8854C89.8751 83.0594 88.4319 82.5091 86.9255 82.2451L86.5802 84.2151ZM90.2269 85.6029C91.341 86.264 92.297 87.2784 93.0785 88.6981L94.8306 87.7337C93.9076 86.0568 92.7187 84.7559 91.2475 83.8829L90.2269 85.6029ZM93.0785 88.6981C93.8201 90.0453 94.233 91.9329 94.233 94.4375H96.233C96.233 91.7432 95.7936 89.4831 94.8306 87.7337L93.0785 88.6981ZM94.233 94.4375V116H96.233V94.4375H94.233ZM95.233 115H90.2045V117H95.233V115ZM91.2045 116V111.568H89.2045V116H91.2045ZM90.2045 110.568H89.9489V112.568H90.2045V110.568ZM89.0473 111.135C88.7699 111.713 88.2803 112.384 87.531 113.147L88.9577 114.549C89.7992 113.692 90.446 112.843 90.8504 112.001L89.0473 111.135ZM87.531 113.147C86.8472 113.843 85.9069 114.466 84.6745 114.996L85.4647 116.833C86.8744 116.227 88.0505 115.472 88.9577 114.549L87.531 113.147ZM84.6745 114.996C83.5116 115.496 82.0422 115.767 80.233 115.767V117.767C82.2305 117.767 83.9855 117.47 85.4647 116.833L84.6745 114.996ZM81 113.25C83.1175 113.25 84.9754 112.834 86.5255 111.946L85.5313 110.21C84.3541 110.885 82.8597 111.25 81 111.25V113.25ZM86.5217 111.948C88.0387 111.088 89.2152 109.955 90.0105 108.543L88.2679 107.562C87.6712 108.621 86.7738 109.506 85.5352 110.208L86.5217 111.948ZM90.0062 108.551C90.7995 107.171 91.2045 105.7 91.2045 104.153H89.2045C89.2045 105.334 88.8994 106.463 88.2722 107.554L90.0062 108.551ZM91.2045 104.153V99.5511H89.2045V104.153H91.2045ZM89.4363 98.911C89.4542 98.8895 89.4201 98.9372 89.246 99.0243C89.0821 99.1062 88.844 99.1985 88.5161 99.2949L89.0805 101.214C89.477 101.097 89.8355 100.966 90.1404 100.813C90.435 100.666 90.7418 100.469 90.9728 100.191L89.4363 98.911ZM88.5287 99.2913C87.8613 99.4782 87.0739 99.6486 86.1623 99.8005L86.4911 101.773C87.4545 101.613 88.3149 101.428 89.0679 101.217L88.5287 99.2913ZM86.1746 99.7986C85.259 99.9394 84.365 100.066 83.4928 100.179L83.7487 102.162C84.6378 102.048 85.5479 101.919 86.4788 101.775L86.1746 99.7986ZM83.5067 100.177C82.6376 100.277 81.9284 100.363 81.3809 100.435L81.6418 102.418C82.1739 102.348 82.8709 102.263 83.7347 102.164L83.5067 100.177ZM81.382 100.435C80.0167 100.613 78.7308 100.903 77.5268 101.31L78.1664 103.205C79.2351 102.844 80.3924 102.581 81.6407 102.418L81.382 100.435ZM77.534 101.307C76.2753 101.721 75.2128 102.366 74.385 103.261L75.8536 104.619C76.4178 104.009 77.1735 103.531 78.1592 103.207L77.534 101.307ZM74.3845 103.262C73.4895 104.232 73.0966 105.507 73.0966 106.966H75.0966C75.0966 105.868 75.3855 105.126 75.8541 104.619L74.3845 103.262ZM73.0966 106.966C73.0966 108.999 73.8706 110.646 75.4663 111.751L76.6047 110.107C75.6152 109.422 75.0966 108.428 75.0966 106.966H73.0966ZM75.4767 111.758C76.9882 112.777 78.8518 113.25 81 113.25V111.25C79.1425 111.25 77.6965 110.842 76.5944 110.1L75.4767 111.758Z" fill="black" mask="url(#path-34-outside-8_853_3)"/>
<rect x="15" y="42" width="315" height="190" rx="4" stroke="black" stroke-width="2"/>
<rect x="1" y="1" width="343" height="245" rx="9" stroke="black" stroke-width="2"/>
</svg>
