<svg width="222" height="370" viewBox="0 0 222 370" fill="none" xmlns="http://www.w3.org/2000/svg">
<circle cx="75" cy="75" r="75" fill="#ECF7FC"/>
<path d="M211.009 282.114C203.409 290.514 188.342 290.614 181.509 289.614L191.509 340.114C191.842 341.614 192.309 345.814 191.509 350.614C190.709 355.414 187.175 364.281 185.509 368.114C188.175 368.614 198.909 365.614 220.509 349.614L211.009 282.114Z" fill="#333333"/>
<path d="M142.509 241.614C139.709 252.414 119.509 260.614 119.509 260.614L142.009 303.114C144.342 306.114 148.309 316.414 145.509 333.614C150.175 330.948 162.209 321.114 173.009 303.114L142.509 241.614Z" fill="#333333"/>
<path d="M61.0083 122.614C57.0083 127.448 49.3083 138.514 50.5083 144.114C51.7083 149.714 54.0086 152.448 55.0088 153.114C56.6755 154.948 63.7088 158.414 78.5088 157.614C97.0088 156.614 120.009 148.114 120.009 146.614C131.342 147.281 152.809 147.114 148.009 141.114M148.009 141.114H135.509M148.009 141.114C152.009 138.781 158.109 134.214 150.509 134.614M150.509 134.614C142.909 135.014 135.675 134.781 133.009 134.614H150.509ZM150.509 134.614C154.009 132.948 158.609 129.214 149.009 127.614M149.009 127.614H134.009M149.009 127.614C152.842 125.281 157.509 120.414 145.509 119.614" stroke="#333333" stroke-width="2" stroke-linecap="round" stroke-linejoin="round"/>
<path d="M108.509 121.114C101.509 110.781 84.2091 91.2142 71.0091 95.6142C66.5088 97.6143 65.6091 103.514 82.0091 101.114C87.0088 99.6143 90.0091 88.7142 80.0091 77.1142C77.5091 74.1143 65.0091 68.2388 75.0091 82.1142C85.0091 95.9896 91.1757 87.8956 93.0091 82.1142C94.0091 76.1143 88.5091 69.1142 86.5091 77.1142C84.5091 85.1142 102.009 83.6143 105.009 82.1142C110.009 80.1143 110.609 72.5142 107.009 68.1142C103.409 63.7142 100.842 69.2808 100.009 72.6142C99.1757 75.1142 99.0091 82.2143 105.009 90.6143C111.009 99.0142 118.176 108.448 121.009 112.114" stroke="#333333" stroke-width="2" stroke-linecap="round" stroke-linejoin="round"/>
<path d="M32.0088 74.6143C32.4088 99.4143 52.1754 117.281 62.0088 123.114C77.209 132.714 87.0087 132.448 90.0085 131.114C126.508 114.614 115.508 113.614 128.508 107.114C138.908 101.914 134.508 113.281 131.008 119.614H145.008C143.808 118.814 138.508 108.948 136.008 104.114C132.408 99.7142 131.175 79.6142 131.008 70.1142C130.008 58.6142 122.308 33.7143 99.5085 26.1143C76.7085 18.5143 58.1666 29.1667 51.5 34C45 38.1667 31.6088 49.8143 32.0088 74.6143Z" stroke="#333333" stroke-width="2" stroke-linecap="round" stroke-linejoin="round"/>
<path d="M194.509 160.614L220.509 349.614C215.175 354.448 200.709 365.014 185.509 368.614C187.675 363.281 192.009 351.014 192.009 344.614C192.009 338.214 165.009 212.614 151.509 150.614C155.175 149.114 161.409 143.814 157.009 134.614H166.353" stroke="#333333" stroke-width="2" stroke-linecap="round" stroke-linejoin="round"/>
<path d="M108.009 151.614L87.0089 177.114C83.8422 179.781 79.4089 188.414 87.0089 201.614C94.6089 214.814 126.842 274.781 142.009 303.114C144.342 305.614 148.309 315.314 145.509 334.114C150.509 330.614 163.009 319.514 173.009 303.114L122.009 198.614L151.009 167.614L154.509 164.114C152.342 166.948 145.409 170.914 135.009 164.114L131.009 167.614C128.842 168.281 124.009 168.514 122.009 164.114L112.009 151.614H108.009Z" stroke="#333333" stroke-width="2" stroke-linecap="round" stroke-linejoin="round"/>
<path d="M184.509 91.6143C184.109 88.8143 184.342 72.4476 184.509 64.6143C194.909 70.6143 199.509 84.7809 200.509 91.1143L184.509 91.6143Z" fill="#333333" stroke="#333333" stroke-width="2" stroke-linecap="round" stroke-linejoin="round"/>
<path d="M189.009 120.614C187.009 116.114 183.309 98.5143 184.509 64.1143" stroke="#333333" stroke-width="2" stroke-linecap="round" stroke-linejoin="round"/>
<path d="M156.009 55.6143C157.842 64.2809 161.409 82.8143 161.009 87.6143C160.509 93.6143 162.009 155.114 184.009 160.114C201.609 164.114 205.342 149.781 205.009 142.114C205.009 137.281 204.409 123.014 202.009 104.614" stroke="#333333" stroke-width="2" stroke-linecap="round" stroke-linejoin="round"/>
<path d="M129.009 13.1143C125.009 23.1143 121.109 43.8143 135.509 46.6143V64.6143C138.342 68.9476 146.508 75.0143 156.508 64.6143C156.675 62.1143 156.508 56.2143 154.508 52.6143C153.508 48.2809 152.508 40.3143 156.508 43.1143C160.508 45.9143 162.175 49.6143 162.508 51.1143C163.008 54.6143 164.008 62.2143 164.008 64.6143L174.008 74.6143" stroke="#333333" stroke-width="2" stroke-linecap="round" stroke-linejoin="round"/>
<path d="M157.009 3.61398C138.209 -3.98602 130.509 6.78064 129.009 13.114C138.209 14.7138 140.842 12.4474 141.009 11.1143C141.009 13.1143 142.009 15.6143 142.509 16.6143C144.675 19.9476 150.609 26.5143 157.009 26.1143C163.409 25.7143 159.675 32.6143 157.009 36.1143V43.1143H163.509V33.6143C165.509 27.6143 169.009 27.7809 170.509 28.6143L171.509 47.1143C183.109 51.5143 185.009 60.2809 184.509 64.1143C198.909 74.1143 202.175 95.2809 202.009 104.614L211.009 97.1143C215.509 89.6143 220.509 73.2143 204.509 67.6143C188.509 62.0143 184.509 51.6143 184.509 47.1143C183.175 35.7808 175.809 11.214 157.009 3.61398Z" stroke="#333333" stroke-width="2" stroke-linecap="round" stroke-linejoin="round"/>
<path d="M156.509 64.6143C146.509 75.0143 138.342 68.9476 135.509 64.6143L131.009 65.6143V70.6143C130.609 87.8143 133.509 99.1143 135.009 102.614L139.509 110.614L144.509 119.614C157.309 120.014 153.176 125.114 149.509 127.614C158.309 129.214 154.176 132.948 151.009 134.614H157.509H166.509C162.509 119.614 163.009 111.114 162.009 108.614C161.209 106.614 161.009 93.7809 161.009 87.6143L160.509 79.6143L157.509 62.6143L156.509 64.6143Z" fill="#333333"/>
<path d="M161.509 48.6143C164.175 49.6143 170.109 52.3143 172.509 55.1143" stroke="#333333" stroke-width="2"/>
<path d="M163.009 54.1143C165.675 55.1143 171.609 57.8143 174.009 60.6143" stroke="#333333" stroke-width="2"/>
<path d="M163.509 59.1143C166.175 60.1143 172.609 62.8143 175.009 65.6143" stroke="#333333" stroke-width="2"/>
</svg>
