<svg width="381" height="391" viewBox="0 0 381 391" fill="none" xmlns="http://www.w3.org/2000/svg">
<path d="M216.562 332.533L183.222 342.014L173.021 372.702L121.901 365.719L126.204 334.225L95.6445 316.014L69.4963 331.491L41.3574 295.565L57.4986 272.706L49.0211 239.466L16.2689 229.979L22.857 181.753L57.357 178.446L74.5738 147.714L65.0207 122.347L102.168 92.3325L123.476 112.287L159.797 112.094L170.546 75.6073L218.717 82.1879L214.414 113.682L243.721 133.727L275.188 115.969L303.907 154.982L279.094 182.671L285.429 209.603L322.736 229.738L312.484 275.458L277.094 270.623L263.767 294.869L280.244 328.199L242.517 355.127L216.562 332.533Z" fill="#ECF7FC" stroke="#333333" stroke-width="2" stroke-linejoin="round"/>
<circle cx="170.308" cy="223.953" r="58.1248" fill="white" stroke="black" stroke-width="2"/>
<rect x="228.545" width="187.524" height="157.59" rx="16" transform="rotate(41.2479 228.545 0)" fill="white"/>
<path d="M306.136 211.17L280.568 222.355L275.774 247.923H234.227V222.355L207.861 211.17L188.685 226.35L162.319 200.783L172.706 180.808L162.319 155.241L135.153 151.246V112.096L162.319 105.704L172.706 79.3374L162.319 60.1618L188.685 32.1974L207.861 45.7801L234.227 36.9913L241.418 11.4238H280.568V36.9913L306.136 49.775L329.306 32.1974L356.472 60.1618L339.693 84.9303L347.683 105.704L379.642 117.689L376.446 155.241H347.683L339.693 176.014L356.472 200.783L329.306 226.35L306.136 211.17Z" fill="white" stroke="#333333" stroke-width="2" stroke-linejoin="round"/>
<circle cx="257.398" cy="129.673" r="46.939" fill="#ECF7FC" stroke="black" stroke-width="2"/>
</svg>
