<svg width="268" height="268" viewBox="0 0 268 268" fill="none" xmlns="http://www.w3.org/2000/svg">
<path d="M133.999 134C121.716 134 111.201 129.626 102.454 120.879C93.7063 112.132 89.3327 101.617 89.3327 89.3333C89.3327 77.05 93.7063 66.5347 102.454 57.7875C111.201 49.0402 121.716 44.6666 133.999 44.6666C146.283 44.6666 156.798 49.0402 165.545 57.7875C174.292 66.5347 178.666 77.05 178.666 89.3333C178.666 101.617 174.292 112.132 165.545 120.879C156.798 129.626 146.283 134 133.999 134ZM44.666 223.333V192.067C44.666 185.739 46.2964 179.921 49.557 174.613C52.8177 169.305 57.1429 165.259 62.5327 162.475C74.0716 156.706 85.7966 152.377 97.7077 149.488C109.619 146.6 121.716 145.159 133.999 145.167C146.283 145.167 158.38 146.611 170.291 149.499C182.202 152.388 193.927 156.713 205.466 162.475C210.863 165.267 215.192 169.316 218.453 174.624C221.714 179.932 223.34 185.746 223.333 192.067V223.333H44.666Z" fill="black"/>
</svg>
